<svg width="78" height="26" viewBox="0 0 78 26" fill="none" xmlns="http://www.w3.org/2000/svg">
<path d="M0 25.9386V22.2476H0.414385V23.8432H2.52859V22.2476H2.94298V25.9386H2.52859V24.2553H0.414385V25.9386H0Z" fill="#000000"/>
<path d="M7.57732 26.0002C7.23905 26.0002 6.93461 25.9126 6.65553 25.746C6.37645 25.5794 6.15657 25.3427 5.98744 25.0534C5.82676 24.7641 5.74219 24.4397 5.74219 24.089C5.74219 23.7383 5.82676 23.4139 5.98744 23.1246C6.14812 22.8353 6.368 22.5986 6.65553 22.432C6.93461 22.2654 7.24751 22.1777 7.57732 22.1777C7.9156 22.1777 8.22005 22.2654 8.49912 22.432C8.7782 22.5986 8.99807 22.8265 9.16721 23.1246C9.32789 23.4139 9.41246 23.7383 9.41246 24.089C9.41246 24.4397 9.32789 24.7641 9.16721 25.0534C9.00653 25.3427 8.78665 25.5794 8.49912 25.746C8.22005 25.9213 7.90714 26.0002 7.57732 26.0002ZM7.57732 25.5794C7.83103 25.5794 8.06782 25.518 8.2877 25.3865C8.50758 25.255 8.67671 25.0797 8.80357 24.8517C8.93042 24.6238 8.99807 24.3695 8.99807 24.0978C8.99807 23.826 8.93042 23.5717 8.80357 23.3438C8.67671 23.1158 8.50758 22.9317 8.2877 22.8002C8.06782 22.6687 7.83949 22.5986 7.57732 22.5986C7.32362 22.5986 7.08683 22.6687 6.86695 22.8002C6.64707 22.9317 6.47793 23.1158 6.35108 23.3438C6.22423 23.5717 6.16503 23.826 6.16503 24.0978C6.16503 24.3695 6.22423 24.6238 6.35108 24.8517C6.47793 25.0797 6.64707 25.255 6.86695 25.3865C7.07837 25.518 7.31516 25.5794 7.57732 25.5794Z" fill="#000000"/>
<path d="M12.1948 25.9386V22.2476H14.2076V22.6509H12.6177V25.9386H12.1948Z" fill="#000000"/>
<path d="M17.5984 25.9386V22.6509H16.4482V22.2476H19.1713V22.6509H18.0212V25.9386H17.5984Z" fill="#000000"/>
<path d="M21.8184 25.9386V22.2476H24.3047V22.6596H22.2327V23.8432H23.9241V24.2553H22.2327V25.5177H24.3385V25.9386H21.8184Z" fill="#000000"/>
<path d="M27.1296 25.9386V22.2476H28.4827C28.6857 22.2476 28.8633 22.2914 29.0155 22.3703C29.1677 22.4492 29.2861 22.5632 29.3622 22.7035C29.4468 22.8525 29.4891 23.0103 29.4891 23.2032C29.4891 23.3172 29.4637 23.4311 29.4214 23.5276C29.3792 23.6328 29.32 23.7292 29.2439 23.8081C29.1677 23.887 29.0832 23.9484 28.9986 23.9835C29.1255 24.0098 29.2354 24.0711 29.3369 24.1588C29.4384 24.2465 29.5229 24.3605 29.5821 24.492C29.6413 24.6235 29.6667 24.7638 29.6667 24.9128C29.6667 25.1232 29.616 25.3073 29.5229 25.4564C29.4299 25.6142 29.303 25.7281 29.1424 25.8158C28.9817 25.8947 28.8126 25.9386 28.6265 25.9386H27.1296ZM28.4658 23.8432C28.5758 23.8432 28.6772 23.8169 28.7787 23.7643C28.8717 23.7117 28.9479 23.6328 29.0071 23.5363C29.0663 23.4399 29.0916 23.3347 29.0916 23.2295C29.0916 23.1155 29.0663 23.0103 29.0155 22.9226C28.9648 22.8262 28.8971 22.7561 28.8041 22.7035C28.7111 22.6509 28.6011 22.6245 28.4827 22.6245H27.5525V23.852H28.4658V23.8432ZM28.6096 25.5703C28.7364 25.5703 28.8464 25.544 28.9394 25.4827C29.0409 25.4213 29.117 25.3424 29.1677 25.2372C29.2269 25.132 29.2523 25.018 29.2523 24.8865C29.2523 24.7638 29.2269 24.6498 29.1677 24.5446C29.1085 24.4394 29.024 24.3605 28.9225 24.2991C28.8126 24.2377 28.6942 24.2114 28.5588 24.2114H27.5356V25.5879H28.6096V25.5703Z" fill="#000000"/>
<path d="M33.9965 26.0002C33.6582 26.0002 33.3538 25.9126 33.0747 25.746C32.7956 25.5794 32.5758 25.3427 32.4066 25.0534C32.2459 24.7641 32.1614 24.4397 32.1614 24.089C32.1614 23.7383 32.2459 23.4139 32.4066 23.1246C32.5673 22.8353 32.7872 22.5986 33.0747 22.432C33.3538 22.2654 33.6667 22.1777 33.9965 22.1777C34.3348 22.1777 34.6392 22.2654 34.9183 22.432C35.1974 22.5986 35.4173 22.8265 35.5864 23.1246C35.7471 23.4139 35.8316 23.7383 35.8316 24.089C35.8316 24.4397 35.7471 24.7641 35.5864 25.0534C35.4257 25.3427 35.2058 25.5794 34.9183 25.746C34.6392 25.9213 34.3348 26.0002 33.9965 26.0002ZM33.9965 25.5794C34.2502 25.5794 34.487 25.518 34.7069 25.3865C34.9268 25.255 35.0959 25.0797 35.2228 24.8517C35.3496 24.6238 35.4173 24.3695 35.4173 24.0978C35.4173 23.826 35.3496 23.5717 35.2228 23.3438C35.0959 23.1158 34.9268 22.9317 34.7069 22.8002C34.487 22.6687 34.2587 22.5986 33.9965 22.5986C33.7428 22.5986 33.506 22.6687 33.2861 22.8002C33.0663 22.9317 32.8971 23.1158 32.7703 23.3438C32.6434 23.5717 32.5842 23.826 32.5842 24.0978C32.5842 24.3695 32.6434 24.6238 32.7703 24.8517C32.8971 25.0797 33.0663 25.255 33.2861 25.3865C33.506 25.518 33.7428 25.5794 33.9965 25.5794Z" fill="#000000"/>
<path d="M41.1934 25.9388V22.9229L39.0284 25.9388H38.614V22.2478H39.0284V25.2374L41.1764 22.2478H41.6077V25.9388H41.1934ZM40.3984 21.6867C40.483 21.6341 40.5506 21.5639 40.6014 21.4763C40.6437 21.3886 40.669 21.2834 40.6775 21.1606H40.3054C40.3054 21.2308 40.2969 21.2922 40.2885 21.336C40.2716 21.3798 40.2546 21.4149 40.2208 21.4324C40.187 21.4587 40.1447 21.4675 40.0855 21.4675C40.0263 21.4675 39.984 21.4587 39.9502 21.4324C39.9164 21.4149 39.891 21.3798 39.8825 21.336C39.8656 21.2922 39.8572 21.2308 39.8572 21.1606H39.4851C39.4851 21.2746 39.5104 21.3798 39.5612 21.4675C39.6035 21.5552 39.6796 21.6341 39.7641 21.6867C39.8572 21.7393 39.9587 21.7656 40.0855 21.7656C40.2039 21.7656 40.3054 21.7393 40.3984 21.6867Z" fill="#000000"/>
<path d="M49.4977 26.0002C49.1595 26.0002 48.855 25.9126 48.5759 25.746C48.2969 25.5794 48.077 25.3427 47.9078 25.0534C47.7472 24.7641 47.6626 24.4397 47.6626 24.089C47.6626 23.7383 47.7472 23.4139 47.9078 23.1246C48.0685 22.8353 48.2884 22.5986 48.5759 22.432C48.855 22.2654 49.1679 22.1777 49.4977 22.1777C49.7345 22.1777 49.9459 22.2216 50.1574 22.3005C50.3603 22.3794 50.5464 22.4934 50.7071 22.6424L50.4618 22.9668C50.3265 22.8528 50.1827 22.7564 50.0136 22.695C49.8529 22.6336 49.6753 22.5986 49.4977 22.5986C49.244 22.5986 49.0072 22.6687 48.7874 22.8002C48.5759 22.9317 48.3983 23.1158 48.2715 23.3438C48.1446 23.5717 48.0854 23.826 48.0854 24.0978C48.0854 24.3695 48.1531 24.6238 48.2715 24.8517C48.3983 25.0797 48.5675 25.255 48.7874 25.3865C49.0072 25.518 49.2356 25.5794 49.4977 25.5794C49.6753 25.5794 49.8445 25.5443 50.0051 25.483C50.1658 25.4216 50.318 25.3252 50.4703 25.1937L50.7155 25.518C50.5464 25.6671 50.3603 25.7811 50.1574 25.8687C49.9459 25.9564 49.7345 26.0002 49.4977 26.0002Z" fill="#000000"/>
<path d="M53.4133 25.9386V22.2476H55.8996V22.6596H53.8277V23.8432H55.5191V24.2553H53.8277V25.5177H55.9335V25.9386H53.4133Z" fill="#000000"/>
<path d="M58.7329 25.9386V22.2476H60.0014C60.2467 22.2476 60.4581 22.3002 60.6357 22.3966C60.8133 22.493 60.9571 22.6333 61.0585 22.8087C61.16 22.984 61.2023 23.1944 61.2023 23.4224C61.2023 23.6678 61.1516 23.8783 61.0585 24.0536C60.9655 24.2377 60.8218 24.378 60.6442 24.4744C60.4666 24.5709 60.2467 24.6235 60.0014 24.6235H59.1473V25.9298H58.7329V25.9386ZM59.9676 24.2377C60.1283 24.2377 60.2721 24.2027 60.3989 24.1413C60.5173 24.0711 60.6188 23.9835 60.6864 23.8607C60.7541 23.738 60.7879 23.5977 60.7879 23.4399C60.7879 23.2821 60.7541 23.1418 60.6864 23.0191C60.6188 22.8963 60.5258 22.8087 60.3989 22.7473C60.2721 22.6859 60.1368 22.6509 59.9676 22.6509H59.1473V24.2377H59.9676Z" fill="#000000"/>
<path d="M63.8745 25.9386V22.2476H65.2276C65.4306 22.2476 65.6082 22.2914 65.7604 22.3703C65.9126 22.4492 66.031 22.5632 66.1071 22.7035C66.1917 22.8525 66.234 23.0103 66.234 23.2032C66.234 23.3172 66.2086 23.4311 66.1663 23.5276C66.124 23.6328 66.0648 23.7292 65.9887 23.8081C65.9126 23.887 65.828 23.9484 65.7435 23.9835C65.8703 24.0098 65.9803 24.0711 66.0817 24.1588C66.1832 24.2465 66.2678 24.3605 66.327 24.492C66.3862 24.6235 66.42 24.7638 66.42 24.9128C66.42 25.1232 66.3693 25.3073 66.2763 25.4564C66.1832 25.6142 66.0564 25.7281 65.8957 25.8158C65.735 25.8947 65.5659 25.9386 65.3798 25.9386H63.8745ZM65.2107 23.8432C65.3206 23.8432 65.4221 23.8169 65.5236 23.7643C65.6166 23.7117 65.6927 23.6328 65.7519 23.5363C65.8111 23.4399 65.8365 23.3347 65.8365 23.2295C65.8365 23.1155 65.8111 23.0103 65.7604 22.9226C65.7097 22.8262 65.642 22.7561 65.549 22.7035C65.4559 22.6509 65.346 22.6245 65.2276 22.6245H64.2974V23.852H65.2107V23.8432ZM65.3545 25.5703C65.4813 25.5703 65.5913 25.544 65.6843 25.4827C65.7858 25.4213 65.8619 25.3424 65.9126 25.2372C65.9718 25.132 65.9972 25.018 65.9972 24.8865C65.9972 24.7638 65.9718 24.6498 65.9126 24.5446C65.8534 24.4394 65.7688 24.3605 65.6674 24.2991C65.5574 24.2377 65.439 24.2114 65.3037 24.2114H64.2804V25.5879H65.3545V25.5703Z" fill="#000000"/>
<path d="M71.7395 25.9386V22.9226L69.5745 25.9386H69.1602V22.2476H69.5745V25.2372L71.7226 22.2476H72.1539V25.9386H71.7395Z" fill="#000000"/>
<path d="M76.7795 26.0002C76.4412 26.0002 76.1367 25.9126 75.8577 25.746C75.5786 25.5794 75.3587 25.3427 75.1896 25.0534C75.0289 24.7641 74.9443 24.4397 74.9443 24.089C74.9443 23.7383 75.0289 23.4139 75.1896 23.1246C75.3503 22.8353 75.5701 22.5986 75.8577 22.432C76.1367 22.2654 76.4496 22.1777 76.7795 22.1777C77.0163 22.1777 77.2277 22.2216 77.4391 22.3005C77.6421 22.3794 77.8281 22.4934 77.9888 22.6424L77.7435 22.9668C77.6082 22.8528 77.4645 22.7564 77.2953 22.695C77.1347 22.6336 76.9571 22.5986 76.7795 22.5986C76.5258 22.5986 76.289 22.6687 76.0691 22.8002C75.8577 22.9317 75.6801 23.1158 75.5532 23.3438C75.4264 23.5717 75.3672 23.826 75.3672 24.0978C75.3672 24.3695 75.4348 24.6238 75.5532 24.8517C75.6801 25.0797 75.8492 25.255 76.0691 25.3865C76.289 25.518 76.5173 25.5794 76.7795 25.5794C76.9571 25.5794 77.1262 25.5443 77.2869 25.483C77.4476 25.4216 77.5998 25.3252 77.752 25.1937L77.9973 25.518C77.8281 25.6671 77.6421 25.7811 77.4391 25.8687C77.2277 25.9564 77.0078 26.0002 76.7795 26.0002Z" fill="#000000"/>
<path d="M15.381 0.604832C15.168 0.489978 14.9231 0.396394 14.6516 0.311317C14.38 0.230494 14.1085 0.17094 13.8476 0.128401C13.5814 0.0901166 13.3898 0.0688477 13.2673 0.0688477C12.9851 0.0688477 12.703 0.0773556 12.4314 0.094371C12.1599 0.111386 11.9097 0.145417 11.6861 0.204971C11.4624 0.260271 11.2814 0.353856 11.1377 0.485725C10.9939 0.617594 10.9247 0.792 10.9247 1.02171C10.9247 1.81718 10.9247 2.54458 10.9247 3.20818C10.9247 3.87178 10.9247 4.52262 10.9247 5.15219C10.9247 5.78601 10.9354 6.42834 10.9567 7.08343C10.978 7.73852 11.0046 8.47444 11.0472 9.28266C10.9034 9.05721 10.6798 8.69138 10.3763 8.18943C10.0729 7.68747 9.72148 7.13022 9.3275 6.51341C8.93352 5.89661 8.51824 5.25853 8.08167 4.59493C7.6451 3.93133 7.2245 3.31027 6.81987 2.73601C6.41524 2.16174 6.04788 1.67255 5.72311 1.26418C5.39834 0.860062 5.15344 0.617593 4.99371 0.53677C4.7701 0.421916 4.51455 0.319824 4.23237 0.221986C3.9502 0.124148 3.47103 0.0773559 2.8002 0.0773559C2.5553 0.0773559 2.29974 0.0858638 2.02289 0.102879C1.75136 0.119895 1.49048 0.153924 1.24558 0.213478C1.00067 0.268778 0.793032 0.349601 0.622662 0.455947C0.452292 0.562293 0.351135 0.711178 0.335163 0.906855C0.234006 2.07241 0.186089 3.28475 0.196737 4.53963C0.207385 5.79452 0.191413 7.00686 0.148821 8.17241C0.106228 9.55066 0.0796081 10.8864 0.0583119 12.1838C0.0370156 13.4812 0.0263672 14.6808 0.0263672 15.7825C0.0263672 15.9782 0.138173 16.1271 0.361783 16.2334C0.585394 16.3398 0.835624 16.4249 1.10715 16.4887C1.37868 16.5525 1.6502 16.595 1.91108 16.612C2.17196 16.629 2.34766 16.6376 2.42752 16.6376C2.52868 16.6376 2.71502 16.629 2.99187 16.612C3.2634 16.595 3.54557 16.5652 3.82775 16.5142C4.10992 16.4674 4.3708 16.3951 4.60506 16.3058C4.83932 16.2164 4.97242 16.1058 5.01501 15.9782C5.01501 15.9612 5.01501 15.8548 5.01501 15.6634C5.01501 15.4677 5.01501 15.2168 5.01501 14.9105C5.01501 14.6042 5.01501 14.2682 5.01501 13.9023C5.01501 13.5365 5.00969 13.1877 4.99904 12.8559C4.98839 12.5241 4.98307 12.2221 4.98307 11.9583C4.98307 11.6903 4.98307 11.5074 4.98307 11.4096C4.98307 10.8438 4.98307 10.3461 4.98307 9.91649C4.98307 9.48685 4.97242 8.98915 4.95112 8.42339C5.17473 8.72967 5.44626 9.10826 5.77103 9.55491C6.09579 10.0016 6.45251 10.4822 6.83584 11.0012C7.21917 11.5202 7.61848 12.0477 8.0231 12.5794C8.42773 13.1154 8.82171 13.6216 9.21037 14.098C9.5937 14.5744 9.96639 15.0083 10.3231 15.3997C10.6798 15.7868 10.9886 16.0973 11.2495 16.3228C11.308 16.3696 11.4039 16.4121 11.537 16.4461C11.6701 16.4802 11.8138 16.5099 11.9789 16.544C12.1386 16.578 12.3036 16.595 12.4634 16.6035C12.6231 16.612 12.7562 16.6163 12.8574 16.6163C12.9585 16.6163 13.1608 16.6078 13.4643 16.5908C13.7678 16.5737 14.0766 16.5482 14.3907 16.5184C14.7048 16.4844 14.9923 16.4419 15.2585 16.3866C15.5194 16.3313 15.6631 16.2632 15.6844 16.1781C15.7057 16.1313 15.7164 15.9697 15.7164 15.706C15.7164 15.438 15.7217 15.1147 15.7323 14.7318C15.743 14.3532 15.7483 13.9406 15.7483 13.5025C15.7483 13.0643 15.743 12.6475 15.7323 12.2518C15.7217 11.8562 15.7164 11.5032 15.7164 11.1926C15.7164 10.8864 15.7164 10.6652 15.7164 10.5375V8.83601C15.7164 7.57262 15.7323 6.2752 15.7643 4.948C15.7962 3.6208 15.7696 2.29786 15.6898 0.987677C15.7004 0.843047 15.5939 0.719685 15.381 0.604832Z" fill="#D33CBA"/>
<path d="M31.3638 5.56462C31.3638 5.33917 31.2946 5.16476 31.1509 5.0414C31.0071 4.91803 30.8314 4.83296 30.6185 4.78617C30.4055 4.73937 30.1819 4.7096 29.9476 4.70109C29.7134 4.69258 29.4951 4.68833 29.2928 4.68833C29.149 4.68833 28.9361 4.69258 28.6539 4.70109C28.3717 4.7096 28.0789 4.73937 27.7861 4.78617C27.4932 4.83296 27.2377 4.90527 27.0247 4.99461C26.8118 5.08394 26.7053 5.21155 26.7053 5.3732V5.61566C26.2208 5.11371 25.6458 4.78617 24.9856 4.63303C24.3254 4.47989 23.6226 4.40332 22.8719 4.40332C21.7965 4.40332 20.8754 4.599 20.1034 4.9861C19.3314 5.3732 18.6926 5.8794 18.1868 6.49196C17.681 7.10876 17.3083 7.79363 17.074 8.54656C16.8398 9.29949 16.7227 10.0482 16.7227 10.7968C16.7227 11.5583 16.8398 12.2984 17.074 13.0216C17.3083 13.7448 17.665 14.3828 18.1548 14.9401C18.6393 15.4973 19.2676 15.9482 20.0236 16.2885C20.7849 16.6289 21.7007 16.799 22.7761 16.799C23.5055 16.799 24.1976 16.6927 24.8472 16.4842C25.4967 16.2758 26.093 15.9823 26.6414 15.6079C26.6627 15.6547 26.6733 15.71 26.6733 15.7653C26.6733 15.8206 26.6733 15.8759 26.6733 15.9227C26.6733 16.1354 26.7479 16.2928 26.9023 16.3949C27.0567 16.5012 27.243 16.5736 27.4666 16.6118C27.6902 16.6501 27.9245 16.6714 28.1641 16.6714C28.409 16.6714 28.6219 16.6714 28.8029 16.6714C29.0479 16.6714 29.3194 16.6671 29.6229 16.6586C29.9263 16.6501 30.2085 16.6118 30.4747 16.5353C30.7356 16.463 30.9592 16.3524 31.1455 16.2077C31.3266 16.0631 31.4171 15.8504 31.4171 15.5739V13.0684L31.3638 8.07013V5.56462ZM26.2527 11.6051C26.1516 11.9071 25.9972 12.1751 25.7949 12.4176C25.5925 12.66 25.3263 12.8557 25.0016 13.0003C24.6768 13.145 24.3041 13.2173 23.8782 13.2173C23.4523 13.2173 23.0849 13.1407 22.7814 12.9876C22.478 12.8344 22.2277 12.6345 22.0361 12.392C21.8444 12.1496 21.7007 11.8773 21.6101 11.5795C21.5196 11.2818 21.4717 10.984 21.4717 10.6905C21.4717 10.414 21.5196 10.112 21.6101 9.78017C21.7007 9.44838 21.8444 9.13784 22.0361 8.84433C22.2277 8.55082 22.478 8.30409 22.7814 8.10416C23.0849 7.89998 23.4416 7.80214 23.8463 7.80214C24.2722 7.80214 24.6449 7.89998 24.9696 8.09565C25.2944 8.29133 25.5606 8.5338 25.7736 8.82306C25.9865 9.11232 26.1409 9.42711 26.2474 9.75891C26.3486 10.0907 26.4018 10.4012 26.4018 10.6948C26.4071 11.001 26.3539 11.303 26.2527 11.6051Z" fill="#D33CBA"/>
<path d="M45.3718 13.7194C45.26 13.647 45.1322 13.6088 44.9938 13.6088C44.85 13.6088 44.7116 13.6088 44.5678 13.6088C44.4028 13.6088 44.259 13.5747 44.1259 13.5109C43.9928 13.4471 43.9077 13.2685 43.8651 12.9749C43.8225 12.8133 43.8118 12.6517 43.8331 12.49C43.8544 12.3284 43.8651 12.1667 43.8651 12.0051V9.3294L43.897 3.93553V1.26412C43.897 1.08546 43.8331 0.936573 43.7 0.813212C43.5669 0.689851 43.4072 0.60052 43.2155 0.532458C43.0239 0.468651 42.8216 0.421859 42.6086 0.40059C42.3956 0.375067 42.1986 0.362305 42.0176 0.362305H40.7398C40.3938 0.362305 40.0477 0.413351 39.707 0.519697C39.3609 0.626043 39.1586 0.830228 39.1 1.14076C39.0574 1.35345 39.0361 1.65547 39.0255 2.05108C39.0148 2.44669 39.0095 2.86782 39.0095 3.31447C39.0095 3.76112 39.0148 4.19501 39.0255 4.61614C39.0361 5.03727 39.0415 5.36908 39.0415 5.61154V7.58107L39.0734 11.4946V13.4641C39.0734 14.5489 39.3822 15.3869 39.9998 15.9782C40.6174 16.5694 41.6396 16.8672 43.0558 16.8672C43.503 16.8672 43.8917 16.8502 44.2271 16.8204C44.5625 16.7864 44.8447 16.7098 45.0789 16.5907C45.3132 16.4673 45.4836 16.2887 45.5954 16.042C45.7072 15.7995 45.7604 15.4762 45.7604 15.0678C45.7604 14.6467 45.7232 14.3362 45.6539 14.132C45.5741 13.9321 45.4836 13.7917 45.3718 13.7194Z" fill="#D33CBA"/>
<path d="M53.5122 4.32666C52.3356 4.32666 51.2761 4.4798 50.3337 4.79033C49.3913 5.0966 48.5927 5.5305 47.9432 6.092C47.2937 6.64926 46.7985 7.32136 46.4525 8.09556C46.1064 8.87402 45.936 9.72478 45.936 10.6479C45.936 12.5749 46.5589 14.085 47.8048 15.1697C49.0506 16.2544 50.9034 16.7989 53.3578 16.7989C54.5344 16.7989 55.5939 16.65 56.5362 16.348C57.4786 16.0502 58.2879 15.6291 58.9534 15.0846C59.6242 14.5401 60.1353 13.8893 60.492 13.1279C60.8487 12.3664 61.0244 11.5242 61.0244 10.6011C61.0244 8.65707 60.4015 7.12569 59.1557 6.00693C57.9098 4.88391 56.0251 4.32666 53.5122 4.32666ZM55.9133 11.4816C55.7909 11.7964 55.6152 12.0857 55.3809 12.3451C55.1467 12.6046 54.8592 12.8173 54.5131 12.979C54.167 13.1406 53.7837 13.2214 53.3578 13.2214C52.9318 13.2214 52.5592 13.1406 52.245 12.979C51.9309 12.8173 51.67 12.6089 51.4677 12.3579C51.2654 12.1069 51.111 11.8262 51.0099 11.5199C50.9087 11.2136 50.8555 10.9116 50.8555 10.6223C50.8555 10.3161 50.9087 9.99277 51.0205 9.66097C51.1323 9.32918 51.2974 9.02715 51.521 8.75065C51.7446 8.47415 52.0161 8.2487 52.3409 8.07004C52.6656 7.89138 53.049 7.80205 53.4962 7.80205C54.002 7.80205 54.4226 7.88287 54.758 8.04452C55.0934 8.20616 55.3543 8.4146 55.5513 8.66558C55.743 8.91655 55.8814 9.21007 55.9612 9.54187C56.0411 9.87367 56.0837 10.2097 56.0837 10.55C56.0997 10.8563 56.0358 11.1668 55.9133 11.4816Z" fill="#D33CBA"/>
<path d="M77.9389 8.82339C77.9389 7.56 77.9549 6.26258 77.9869 4.93538C78.0188 3.60818 77.9922 2.28524 77.9123 0.975057C77.9123 0.847442 77.8058 0.72408 77.5929 0.609226C77.3799 0.494373 77.135 0.400788 76.8635 0.315712C76.5919 0.234889 76.3204 0.175334 76.0595 0.132796C75.7933 0.0945111 75.6017 0.0732422 75.4792 0.0732422C75.197 0.0732422 74.9149 0.0817501 74.6433 0.0987655C74.3718 0.115781 74.1216 0.149812 73.898 0.209366C73.6744 0.264666 73.4933 0.358249 73.3496 0.490118C73.2058 0.621987 73.1366 0.796395 73.1366 1.0261C73.1366 1.82157 73.1366 2.54898 73.1366 3.21258C73.1366 3.87617 73.1366 4.52701 73.1366 5.15658C73.1366 5.7904 73.1473 6.43273 73.1686 7.08782C73.1899 7.74292 73.2165 8.47883 73.2591 9.28706C73.1153 9.06161 72.8917 8.69578 72.5883 8.19382C72.2848 7.69187 71.9334 7.13462 71.5394 6.51781C71.1454 5.901 70.7302 5.26293 70.2936 4.59933C69.857 3.93573 69.4364 3.31467 69.0318 2.7404C68.6272 2.16613 68.2598 1.67694 67.935 1.26857C67.6103 0.864457 67.3654 0.621988 67.2056 0.541165C66.982 0.426311 66.7265 0.324219 66.4443 0.226381C66.1621 0.128542 65.6829 0.0817504 65.0121 0.0817504C64.7672 0.0817504 64.5117 0.090257 64.2348 0.107272C63.9633 0.124288 63.7024 0.158319 63.4575 0.217872C63.2126 0.273172 63.0049 0.353996 62.8346 0.460342C62.6642 0.566688 62.5631 0.715573 62.5471 0.911249C62.4459 2.0768 62.398 3.28915 62.4086 4.54403C62.4193 5.79891 62.4033 7.01126 62.3607 8.17681C62.3181 9.55505 62.2915 10.8908 62.2702 12.1882C62.2489 13.4856 62.2383 14.6852 62.2383 15.7869C62.2383 15.9826 62.3501 16.1315 62.5737 16.2378C62.7973 16.3442 63.0475 16.4293 63.3191 16.4931C63.5906 16.5569 63.8621 16.5994 64.123 16.6164C64.3839 16.6334 64.5596 16.6419 64.6394 16.6419C64.7406 16.6419 64.9269 16.6334 65.2038 16.6164C65.4753 16.5994 65.7575 16.5696 66.0397 16.5186C66.3218 16.4718 66.5827 16.3995 66.817 16.3102C67.0512 16.2208 67.1843 16.1102 67.2269 15.9826C67.2269 15.9656 67.2269 15.8592 67.2269 15.6678C67.2269 15.4721 67.2269 15.2212 67.2269 14.9149C67.2269 14.6086 67.2269 14.2726 67.2269 13.9067C67.2269 13.5409 67.2216 13.1921 67.211 12.8603C67.2003 12.5285 67.195 12.2265 67.195 11.9627C67.195 11.6947 67.195 11.5118 67.195 11.414C67.195 10.8482 67.195 10.3505 67.195 9.92088C67.195 9.49124 67.1843 8.99354 67.163 8.42778C67.3866 8.73406 67.6582 9.11265 67.9829 9.55931C68.3077 10.006 68.6644 10.4866 69.0478 11.0056C69.4311 11.5246 69.8304 12.0521 70.235 12.5838C70.6396 13.1198 71.0336 13.626 71.4223 14.1024C71.8056 14.5788 72.1783 15.0127 72.535 15.4041C72.8917 15.7912 73.2005 16.1017 73.4614 16.3272C73.52 16.374 73.6158 16.4165 73.7489 16.4505C73.882 16.4846 74.0257 16.5143 74.1908 16.5484C74.3505 16.5824 74.5156 16.5994 74.6753 16.6079C74.835 16.6164 74.9681 16.6207 75.0693 16.6207C75.1704 16.6207 75.3727 16.6122 75.6762 16.5952C75.9797 16.5781 76.2885 16.5526 76.6026 16.5228C76.9167 16.4888 77.2042 16.4463 77.4704 16.391C77.7313 16.3357 77.875 16.2676 77.8963 16.1825C77.9176 16.1357 77.9283 15.9741 77.9283 15.7104C77.9283 15.4424 77.9336 15.1191 77.9443 14.7362C77.9549 14.3576 77.9602 13.945 77.9602 13.5069C77.9602 13.0687 77.9549 12.6518 77.9443 12.2562C77.9336 11.8606 77.9283 11.5076 77.9283 11.197C77.9283 10.8908 77.9283 10.6696 77.9283 10.5419V8.82339H77.9389Z" fill="#D33CBA"/>
<path d="M37.7156 7.4536C37.8487 5.63721 37.8114 5.13101 37.7848 4.25897C37.7475 3.02536 37.2098 2.15332 36.4698 1.65137C36.5017 2.88923 36.4644 4.67159 36.0598 5.16929C35.7723 5.51811 35.1441 5.72229 34.3348 5.72229H34.3295C33.9089 5.72229 33.4404 5.66274 33.0464 5.53938C33.0517 5.75207 33.0624 5.90095 33.0624 6.02006L33.0677 8.45326L33.0996 13.5834V16.1357C33.0996 16.2165 33.1582 16.2888 33.2806 16.3526C33.3818 16.4164 33.5522 16.476 33.7971 16.5228C34.042 16.5696 34.3029 16.6079 34.5904 16.6334C34.8725 16.6589 35.1494 16.6802 35.4103 16.6929C35.6711 16.7057 35.8788 16.7185 36.0172 16.7185C36.1397 16.7185 36.3047 16.7142 36.5177 16.7057C36.7306 16.6972 36.9436 16.6717 37.1566 16.6334C37.3695 16.5951 37.5505 16.5356 37.7049 16.4632C37.8593 16.3909 37.9339 16.2803 37.9339 16.1357C37.9339 16.1357 38.0829 14.4937 37.9498 12.2009C38.0137 11.1842 37.6411 8.47027 37.7156 7.4536Z" fill="#D33CBA"/>
<path d="M34.3403 5.36057C34.9845 5.36057 35.485 5.21594 35.682 4.97347C35.7086 4.94369 35.7299 4.90541 35.7512 4.85861C35.7352 4.87988 35.7246 4.88414 35.7246 4.88414C35.9215 4.29711 36.0333 2.93162 35.9162 1.3492C35.9162 1.33643 35.9109 1.32793 35.9109 1.31517C35.831 0.966351 35.7458 0.702612 35.6713 0.604774C35.3199 0.141105 34.8621 -0.0120333 34.319 0.000728211C33.6109 0.0219974 33.5257 0.264467 33.35 0.56649C33.0998 0.996128 32.7963 4.07165 33.0519 4.99048C33.0572 5.02026 33.0678 5.04153 33.0732 5.06705C33.0945 5.10959 33.1211 5.14362 33.153 5.17765C33.4672 5.28825 33.8984 5.36057 34.3403 5.36057C34.3403 5.36057 34.335 5.36057 34.3403 5.36057ZM33.8132 0.881274C33.6109 1.14927 33.3234 2.32333 33.3234 2.32333C33.3234 2.25101 33.3926 1.14927 33.5257 0.757913C33.6588 0.366559 34.2178 0.200659 34.6384 0.311259C34.6331 0.702613 34.0102 0.617536 33.8132 0.881274Z" fill="#D33CBA"/>
</svg>
