<svg width="78" height="26" viewBox="0 0 78 26" fill="none" xmlns="http://www.w3.org/2000/svg">
<path d="M0 25.9386V22.2476H0.414385V23.8432H2.52859V22.2476H2.94298V25.9386H2.52859V24.2553H0.414385V25.9386H0Z" fill="black"/>
<path d="M7.57732 26.0002C7.23905 26.0002 6.93461 25.9126 6.65553 25.746C6.37645 25.5794 6.15657 25.3427 5.98744 25.0534C5.82676 24.7641 5.74219 24.4397 5.74219 24.089C5.74219 23.7383 5.82676 23.4139 5.98744 23.1246C6.14812 22.8353 6.368 22.5986 6.65553 22.432C6.93461 22.2654 7.24751 22.1777 7.57732 22.1777C7.9156 22.1777 8.22005 22.2654 8.49912 22.432C8.7782 22.5986 8.99807 22.8265 9.16721 23.1246C9.32789 23.4139 9.41246 23.7383 9.41246 24.089C9.41246 24.4397 9.32789 24.7641 9.16721 25.0534C9.00653 25.3427 8.78665 25.5794 8.49912 25.746C8.22005 25.9213 7.90714 26.0002 7.57732 26.0002ZM7.57732 25.5794C7.83103 25.5794 8.06782 25.518 8.2877 25.3865C8.50758 25.255 8.67671 25.0797 8.80357 24.8517C8.93042 24.6238 8.99807 24.3695 8.99807 24.0978C8.99807 23.826 8.93042 23.5717 8.80357 23.3438C8.67671 23.1158 8.50758 22.9317 8.2877 22.8002C8.06782 22.6687 7.83949 22.5986 7.57732 22.5986C7.32362 22.5986 7.08683 22.6687 6.86695 22.8002C6.64707 22.9317 6.47793 23.1158 6.35108 23.3438C6.22423 23.5717 6.16503 23.826 6.16503 24.0978C6.16503 24.3695 6.22423 24.6238 6.35108 24.8517C6.47793 25.0797 6.64707 25.255 6.86695 25.3865C7.07837 25.518 7.31516 25.5794 7.57732 25.5794Z" fill="black"/>
<path d="M12.1948 25.9386V22.2476H14.2076V22.6509H12.6177V25.9386H12.1948Z" fill="black"/>
<path d="M17.5984 25.9386V22.6509H16.4482V22.2476H19.1713V22.6509H18.0212V25.9386H17.5984Z" fill="black"/>
<path d="M21.8184 25.9386V22.2476H24.3047V22.6596H22.2327V23.8432H23.9241V24.2553H22.2327V25.5177H24.3385V25.9386H21.8184Z" fill="black"/>
<path d="M27.1296 25.9386V22.2476H28.4827C28.6857 22.2476 28.8633 22.2914 29.0155 22.3703C29.1677 22.4492 29.2861 22.5632 29.3622 22.7035C29.4468 22.8525 29.4891 23.0103 29.4891 23.2032C29.4891 23.3172 29.4637 23.4311 29.4214 23.5276C29.3792 23.6328 29.32 23.7292 29.2439 23.8081C29.1677 23.887 29.0832 23.9484 28.9986 23.9835C29.1255 24.0098 29.2354 24.0711 29.3369 24.1588C29.4384 24.2465 29.5229 24.3605 29.5821 24.492C29.6413 24.6235 29.6667 24.7638 29.6667 24.9128C29.6667 25.1232 29.616 25.3073 29.5229 25.4564C29.4299 25.6142 29.303 25.7281 29.1424 25.8158C28.9817 25.8947 28.8126 25.9386 28.6265 25.9386H27.1296ZM28.4658 23.8432C28.5758 23.8432 28.6772 23.8169 28.7787 23.7643C28.8717 23.7117 28.9479 23.6328 29.0071 23.5363C29.0663 23.4399 29.0916 23.3347 29.0916 23.2295C29.0916 23.1155 29.0663 23.0103 29.0155 22.9226C28.9648 22.8262 28.8971 22.7561 28.8041 22.7035C28.7111 22.6509 28.6011 22.6245 28.4827 22.6245H27.5525V23.852H28.4658V23.8432ZM28.6096 25.5703C28.7364 25.5703 28.8464 25.544 28.9394 25.4827C29.0409 25.4213 29.117 25.3424 29.1677 25.2372C29.2269 25.132 29.2523 25.018 29.2523 24.8865C29.2523 24.7638 29.2269 24.6498 29.1677 24.5446C29.1085 24.4394 29.024 24.3605 28.9225 24.2991C28.8126 24.2377 28.6942 24.2114 28.5588 24.2114H27.5356V25.5879H28.6096V25.5703Z" fill="black"/>
<path d="M33.9965 26.0002C33.6582 26.0002 33.3538 25.9126 33.0747 25.746C32.7956 25.5794 32.5758 25.3427 32.4066 25.0534C32.2459 24.7641 32.1614 24.4397 32.1614 24.089C32.1614 23.7383 32.2459 23.4139 32.4066 23.1246C32.5673 22.8353 32.7872 22.5986 33.0747 22.432C33.3538 22.2654 33.6667 22.1777 33.9965 22.1777C34.3348 22.1777 34.6392 22.2654 34.9183 22.432C35.1974 22.5986 35.4173 22.8265 35.5864 23.1246C35.7471 23.4139 35.8316 23.7383 35.8316 24.089C35.8316 24.4397 35.7471 24.7641 35.5864 25.0534C35.4257 25.3427 35.2058 25.5794 34.9183 25.746C34.6392 25.9213 34.3348 26.0002 33.9965 26.0002ZM33.9965 25.5794C34.2502 25.5794 34.487 25.518 34.7069 25.3865C34.9268 25.255 35.0959 25.0797 35.2228 24.8517C35.3496 24.6238 35.4173 24.3695 35.4173 24.0978C35.4173 23.826 35.3496 23.5717 35.2228 23.3438C35.0959 23.1158 34.9268 22.9317 34.7069 22.8002C34.487 22.6687 34.2587 22.5986 33.9965 22.5986C33.7428 22.5986 33.506 22.6687 33.2861 22.8002C33.0663 22.9317 32.8971 23.1158 32.7703 23.3438C32.6434 23.5717 32.5842 23.826 32.5842 24.0978C32.5842 24.3695 32.6434 24.6238 32.7703 24.8517C32.8971 25.0797 33.0663 25.255 33.2861 25.3865C33.506 25.518 33.7428 25.5794 33.9965 25.5794Z" fill="black"/>
<path d="M41.1934 25.9388V22.9229L39.0284 25.9388H38.614V22.2478H39.0284V25.2374L41.1764 22.2478H41.6077V25.9388H41.1934ZM40.3984 21.6867C40.483 21.6341 40.5506 21.5639 40.6014 21.4763C40.6437 21.3886 40.669 21.2834 40.6775 21.1606H40.3054C40.3054 21.2308 40.2969 21.2922 40.2885 21.336C40.2716 21.3798 40.2546 21.4149 40.2208 21.4324C40.187 21.4587 40.1447 21.4675 40.0855 21.4675C40.0263 21.4675 39.984 21.4587 39.9502 21.4324C39.9164 21.4149 39.891 21.3798 39.8825 21.336C39.8656 21.2922 39.8572 21.2308 39.8572 21.1606H39.4851C39.4851 21.2746 39.5104 21.3798 39.5612 21.4675C39.6035 21.5552 39.6796 21.6341 39.7641 21.6867C39.8572 21.7393 39.9587 21.7656 40.0855 21.7656C40.2039 21.7656 40.3054 21.7393 40.3984 21.6867Z" fill="black"/>
<path d="M49.4977 26.0002C49.1595 26.0002 48.855 25.9126 48.5759 25.746C48.2969 25.5794 48.077 25.3427 47.9078 25.0534C47.7472 24.7641 47.6626 24.4397 47.6626 24.089C47.6626 23.7383 47.7472 23.4139 47.9078 23.1246C48.0685 22.8353 48.2884 22.5986 48.5759 22.432C48.855 22.2654 49.1679 22.1777 49.4977 22.1777C49.7345 22.1777 49.9459 22.2216 50.1574 22.3005C50.3603 22.3794 50.5464 22.4934 50.7071 22.6424L50.4618 22.9668C50.3265 22.8528 50.1827 22.7564 50.0136 22.695C49.8529 22.6336 49.6753 22.5986 49.4977 22.5986C49.244 22.5986 49.0072 22.6687 48.7874 22.8002C48.5759 22.9317 48.3983 23.1158 48.2715 23.3438C48.1446 23.5717 48.0854 23.826 48.0854 24.0978C48.0854 24.3695 48.1531 24.6238 48.2715 24.8517C48.3983 25.0797 48.5675 25.255 48.7874 25.3865C49.0072 25.518 49.2356 25.5794 49.4977 25.5794C49.6753 25.5794 49.8445 25.5443 50.0051 25.483C50.1658 25.4216 50.318 25.3252 50.4703 25.1937L50.7155 25.518C50.5464 25.6671 50.3603 25.7811 50.1574 25.8687C49.9459 25.9564 49.7345 26.0002 49.4977 26.0002Z" fill="black"/>
<path d="M53.4133 25.9386V22.2476H55.8996V22.6596H53.8277V23.8432H55.5191V24.2553H53.8277V25.5177H55.9335V25.9386H53.4133Z" fill="black"/>
<path d="M58.7329 25.9386V22.2476H60.0014C60.2467 22.2476 60.4581 22.3002 60.6357 22.3966C60.8133 22.493 60.9571 22.6333 61.0585 22.8087C61.16 22.984 61.2023 23.1944 61.2023 23.4224C61.2023 23.6678 61.1516 23.8783 61.0585 24.0536C60.9655 24.2377 60.8218 24.378 60.6442 24.4744C60.4666 24.5709 60.2467 24.6235 60.0014 24.6235H59.1473V25.9298H58.7329V25.9386ZM59.9676 24.2377C60.1283 24.2377 60.2721 24.2027 60.3989 24.1413C60.5173 24.0711 60.6188 23.9835 60.6864 23.8607C60.7541 23.738 60.7879 23.5977 60.7879 23.4399C60.7879 23.2821 60.7541 23.1418 60.6864 23.0191C60.6188 22.8963 60.5258 22.8087 60.3989 22.7473C60.2721 22.6859 60.1368 22.6509 59.9676 22.6509H59.1473V24.2377H59.9676Z" fill="black"/>
<path d="M63.8745 25.9386V22.2476H65.2276C65.4306 22.2476 65.6082 22.2914 65.7604 22.3703C65.9126 22.4492 66.031 22.5632 66.1071 22.7035C66.1917 22.8525 66.234 23.0103 66.234 23.2032C66.234 23.3172 66.2086 23.4311 66.1663 23.5276C66.124 23.6328 66.0648 23.7292 65.9887 23.8081C65.9126 23.887 65.828 23.9484 65.7435 23.9835C65.8703 24.0098 65.9803 24.0711 66.0817 24.1588C66.1832 24.2465 66.2678 24.3605 66.327 24.492C66.3862 24.6235 66.42 24.7638 66.42 24.9128C66.42 25.1232 66.3693 25.3073 66.2763 25.4564C66.1832 25.6142 66.0564 25.7281 65.8957 25.8158C65.735 25.8947 65.5659 25.9386 65.3798 25.9386H63.8745ZM65.2107 23.8432C65.3206 23.8432 65.4221 23.8169 65.5236 23.7643C65.6166 23.7117 65.6927 23.6328 65.7519 23.5363C65.8111 23.4399 65.8365 23.3347 65.8365 23.2295C65.8365 23.1155 65.8111 23.0103 65.7604 22.9226C65.7097 22.8262 65.642 22.7561 65.549 22.7035C65.4559 22.6509 65.346 22.6245 65.2276 22.6245H64.2974V23.852H65.2107V23.8432ZM65.3545 25.5703C65.4813 25.5703 65.5913 25.544 65.6843 25.4827C65.7858 25.4213 65.8619 25.3424 65.9126 25.2372C65.9718 25.132 65.9972 25.018 65.9972 24.8865C65.9972 24.7638 65.9718 24.6498 65.9126 24.5446C65.8534 24.4394 65.7688 24.3605 65.6674 24.2991C65.5574 24.2377 65.439 24.2114 65.3037 24.2114H64.2804V25.5879H65.3545V25.5703Z" fill="black"/>
<path d="M71.7395 25.9386V22.9226L69.5745 25.9386H69.1602V22.2476H69.5745V25.2372L71.7226 22.2476H72.1539V25.9386H71.7395Z" fill="black"/>
<path d="M76.7795 26.0002C76.4412 26.0002 76.1367 25.9126 75.8577 25.746C75.5786 25.5794 75.3587 25.3427 75.1896 25.0534C75.0289 24.7641 74.9443 24.4397 74.9443 24.089C74.9443 23.7383 75.0289 23.4139 75.1896 23.1246C75.3503 22.8353 75.5701 22.5986 75.8577 22.432C76.1367 22.2654 76.4496 22.1777 76.7795 22.1777C77.0163 22.1777 77.2277 22.2216 77.4391 22.3005C77.6421 22.3794 77.8281 22.4934 77.9888 22.6424L77.7435 22.9668C77.6082 22.8528 77.4645 22.7564 77.2953 22.695C77.1347 22.6336 76.9571 22.5986 76.7795 22.5986C76.5258 22.5986 76.289 22.6687 76.0691 22.8002C75.8577 22.9317 75.6801 23.1158 75.5532 23.3438C75.4264 23.5717 75.3672 23.826 75.3672 24.0978C75.3672 24.3695 75.4348 24.6238 75.5532 24.8517C75.6801 25.0797 75.8492 25.255 76.0691 25.3865C76.289 25.518 76.5173 25.5794 76.7795 25.5794C76.9571 25.5794 77.1262 25.5443 77.2869 25.483C77.4476 25.4216 77.5998 25.3252 77.752 25.1937L77.9973 25.518C77.8281 25.6671 77.6421 25.7811 77.4391 25.8687C77.2277 25.9564 77.0078 26.0002 76.7795 26.0002Z" fill="black"/>
<path d="M15.5972 5.38819C15.3809 5.30501 15.1321 5.23723 14.8563 5.17561C14.5805 5.11707 14.3047 5.07394 14.0397 5.04313C13.7693 5.0154 13.5746 5 13.4502 5C13.1635 5 12.8769 5.00616 12.6011 5.01849C12.3253 5.03081 12.0711 5.05546 11.8439 5.09859C11.6168 5.13864 11.4329 5.20642 11.2869 5.30193C11.1409 5.39743 11.0706 5.52375 11.0706 5.69012C11.0706 6.26624 11.0706 6.79307 11.0706 7.27368C11.0706 7.7543 11.0706 8.22567 11.0706 8.68164C11.0706 9.14069 11.0814 9.6059 11.103 10.0804C11.1246 10.5548 11.1517 11.0878 11.195 11.6732C11.0489 11.5099 10.8218 11.2449 10.5135 10.8814C10.2053 10.5178 9.84832 10.1142 9.44811 9.66752C9.04791 9.2208 8.62607 8.75866 8.18259 8.27805C7.73912 7.79743 7.31188 7.34763 6.90085 6.93171C6.48983 6.51579 6.11666 6.16149 5.78677 5.86573C5.45687 5.57304 5.20809 5.39743 5.04584 5.3389C4.8187 5.25571 4.55911 5.18177 4.27247 5.11091C3.98584 5.04005 3.4991 5.00616 2.81767 5.00616C2.56889 5.00616 2.3093 5.01232 2.02807 5.02465C1.75225 5.03697 1.48725 5.06162 1.23848 5.10475C0.989699 5.1448 0.778779 5.20334 0.605717 5.28036C0.432655 5.35738 0.3299 5.46521 0.313675 5.60693C0.21092 6.45109 0.162246 7.32914 0.173062 8.238C0.183878 9.14685 0.167654 10.0249 0.124389 10.8691C0.081123 11.8673 0.0540822 12.8347 0.0324495 13.7743C0.0108167 14.714 0 15.5828 0 16.3807C0 16.5225 0.113572 16.6303 0.340716 16.7073C0.56786 16.7843 0.822045 16.846 1.09786 16.8922C1.37368 16.9384 1.6495 16.9692 1.9145 16.9815C2.1795 16.9938 2.35797 17 2.43909 17C2.54185 17 2.73114 16.9938 3.01236 16.9815C3.28818 16.9692 3.57481 16.9476 3.86145 16.9107C4.14808 16.8768 4.41308 16.8244 4.65104 16.7597C4.88901 16.695 5.02421 16.6149 5.06748 16.5225C5.06748 16.5101 5.06748 16.4331 5.06748 16.2945C5.06748 16.1528 5.06748 15.971 5.06748 15.7492C5.06748 15.5273 5.06748 15.284 5.06748 15.019C5.06748 14.754 5.06207 14.5014 5.05125 14.2611C5.04043 14.0208 5.03503 13.8021 5.03503 13.611C5.03503 13.4169 5.03503 13.2845 5.03503 13.2136C5.03503 12.8039 5.03503 12.4434 5.03503 12.1322C5.03503 11.8211 5.02421 11.4606 5.00258 11.0508C5.22972 11.2727 5.50554 11.5469 5.83544 11.8703C6.16534 12.1938 6.52769 12.542 6.91708 12.9178C7.30647 13.2937 7.71208 13.6757 8.1231 14.0608C8.53413 14.449 8.93433 14.8157 9.32913 15.1607C9.71852 15.5058 10.0971 15.82 10.4594 16.1035C10.8218 16.3838 11.1355 16.6087 11.4005 16.772C11.46 16.8059 11.5573 16.8367 11.6925 16.8614C11.8277 16.886 11.9737 16.9076 12.1414 16.9322C12.3036 16.9569 12.4713 16.9692 12.6335 16.9754C12.7958 16.9815 12.931 16.9846 13.0337 16.9846C13.1365 16.9846 13.342 16.9784 13.6503 16.9661C13.9585 16.9538 14.2722 16.9353 14.5913 16.9137C14.9104 16.8891 15.2024 16.8583 15.4728 16.8182C15.7378 16.7782 15.8839 16.7289 15.9055 16.6673C15.9271 16.6334 15.9379 16.5163 15.9379 16.3253C15.9379 16.1312 15.9433 15.897 15.9542 15.6198C15.965 15.3456 15.9704 15.0467 15.9704 14.7294C15.9704 14.4121 15.965 14.1101 15.9542 13.8236C15.9433 13.5371 15.9379 13.2814 15.9379 13.0565C15.9379 12.8347 15.9379 12.6745 15.9379 12.582V11.3497C15.9379 10.4347 15.9542 9.49499 15.9866 8.53376C16.0191 7.57253 15.992 6.61438 15.9109 5.66547C15.9217 5.56072 15.8136 5.47137 15.5972 5.38819Z" fill="#D33CBA"/>
<path d="M31.3638 5.56462C31.3638 5.33917 31.2946 5.16476 31.1509 5.0414C31.0071 4.91803 30.8314 4.83296 30.6185 4.78617C30.4055 4.73937 30.1819 4.7096 29.9476 4.70109C29.7134 4.69258 29.4951 4.68833 29.2928 4.68833C29.149 4.68833 28.9361 4.69258 28.6539 4.70109C28.3717 4.7096 28.0789 4.73937 27.7861 4.78617C27.4932 4.83296 27.2377 4.90527 27.0247 4.99461C26.8118 5.08394 26.7053 5.21155 26.7053 5.3732V5.61566C26.2208 5.11371 25.6458 4.78617 24.9856 4.63303C24.3254 4.47989 23.6226 4.40332 22.8719 4.40332C21.7965 4.40332 20.8754 4.599 20.1034 4.9861C19.3314 5.3732 18.6926 5.8794 18.1868 6.49196C17.681 7.10876 17.3083 7.79363 17.074 8.54656C16.8398 9.29949 16.7227 10.0482 16.7227 10.7968C16.7227 11.5583 16.8398 12.2984 17.074 13.0216C17.3083 13.7448 17.665 14.3828 18.1548 14.9401C18.6393 15.4973 19.2676 15.9482 20.0236 16.2885C20.7849 16.6289 21.7007 16.799 22.7761 16.799C23.5055 16.799 24.1976 16.6927 24.8472 16.4842C25.4967 16.2758 26.093 15.9823 26.6414 15.6079C26.6627 15.6547 26.6733 15.71 26.6733 15.7653C26.6733 15.8206 26.6733 15.8759 26.6733 15.9227C26.6733 16.1354 26.7479 16.2928 26.9023 16.3949C27.0567 16.5012 27.243 16.5736 27.4666 16.6118C27.6902 16.6501 27.9245 16.6714 28.1641 16.6714C28.409 16.6714 28.6219 16.6714 28.8029 16.6714C29.0479 16.6714 29.3194 16.6671 29.6229 16.6586C29.9263 16.6501 30.2085 16.6118 30.4747 16.5353C30.7356 16.463 30.9592 16.3524 31.1455 16.2077C31.3266 16.0631 31.4171 15.8504 31.4171 15.5739V13.0684L31.3638 8.07013V5.56462ZM26.2527 11.6051C26.1516 11.9071 25.9972 12.1751 25.7949 12.4176C25.5925 12.66 25.3263 12.8557 25.0016 13.0003C24.6768 13.145 24.3041 13.2173 23.8782 13.2173C23.4523 13.2173 23.0849 13.1407 22.7814 12.9876C22.478 12.8344 22.2277 12.6345 22.0361 12.392C21.8444 12.1496 21.7007 11.8773 21.6101 11.5795C21.5196 11.2818 21.4717 10.984 21.4717 10.6905C21.4717 10.414 21.5196 10.112 21.6101 9.78017C21.7007 9.44838 21.8444 9.13784 22.0361 8.84433C22.2277 8.55082 22.478 8.30409 22.7814 8.10416C23.0849 7.89998 23.4416 7.80214 23.8463 7.80214C24.2722 7.80214 24.6449 7.89998 24.9696 8.09565C25.2944 8.29133 25.5606 8.5338 25.7736 8.82306C25.9865 9.11232 26.1409 9.42711 26.2474 9.75891C26.3486 10.0907 26.4018 10.4012 26.4018 10.6948C26.4071 11.001 26.3539 11.303 26.2527 11.6051Z" fill="#D33CBA"/>
<path d="M45.3718 13.7194C45.26 13.647 45.1322 13.6088 44.9938 13.6088C44.85 13.6088 44.7116 13.6088 44.5678 13.6088C44.4028 13.6088 44.259 13.5747 44.1259 13.5109C43.9928 13.4471 43.9077 13.2685 43.8651 12.9749C43.8225 12.8133 43.8118 12.6517 43.8331 12.49C43.8544 12.3284 43.8651 12.1667 43.8651 12.0051V9.3294L43.897 3.93553V1.26412C43.897 1.08546 43.8331 0.936573 43.7 0.813212C43.5669 0.689851 43.4072 0.60052 43.2155 0.532458C43.0239 0.468651 42.8216 0.421859 42.6086 0.40059C42.3956 0.375067 42.1986 0.362305 42.0176 0.362305H40.7398C40.3938 0.362305 40.0477 0.413351 39.707 0.519697C39.3609 0.626043 39.1586 0.830228 39.1 1.14076C39.0574 1.35345 39.0361 1.65547 39.0255 2.05108C39.0148 2.44669 39.0095 2.86782 39.0095 3.31447C39.0095 3.76112 39.0148 4.19501 39.0255 4.61614C39.0361 5.03727 39.0415 5.36908 39.0415 5.61154V7.58107L39.0734 11.4946V13.4641C39.0734 14.5489 39.3822 15.3869 39.9998 15.9782C40.6174 16.5694 41.6396 16.8672 43.0558 16.8672C43.503 16.8672 43.8917 16.8502 44.2271 16.8204C44.5625 16.7864 44.8447 16.7098 45.0789 16.5907C45.3132 16.4673 45.4836 16.2887 45.5954 16.042C45.7072 15.7995 45.7604 15.4762 45.7604 15.0678C45.7604 14.6467 45.7232 14.3362 45.6539 14.132C45.5741 13.9321 45.4836 13.7917 45.3718 13.7194Z" fill="#D33CBA"/>
<path d="M53.5122 4.32666C52.3356 4.32666 51.2761 4.4798 50.3337 4.79033C49.3913 5.0966 48.5927 5.5305 47.9432 6.092C47.2937 6.64926 46.7985 7.32136 46.4525 8.09556C46.1064 8.87402 45.936 9.72478 45.936 10.6479C45.936 12.5749 46.5589 14.085 47.8048 15.1697C49.0506 16.2544 50.9034 16.7989 53.3578 16.7989C54.5344 16.7989 55.5939 16.65 56.5362 16.348C57.4786 16.0502 58.2879 15.6291 58.9534 15.0846C59.6242 14.5401 60.1353 13.8893 60.492 13.1279C60.8487 12.3664 61.0244 11.5242 61.0244 10.6011C61.0244 8.65707 60.4015 7.12569 59.1557 6.00693C57.9098 4.88391 56.0251 4.32666 53.5122 4.32666ZM55.9133 11.4816C55.7909 11.7964 55.6152 12.0857 55.3809 12.3451C55.1467 12.6046 54.8592 12.8173 54.5131 12.979C54.167 13.1406 53.7837 13.2214 53.3578 13.2214C52.9318 13.2214 52.5592 13.1406 52.245 12.979C51.9309 12.8173 51.67 12.6089 51.4677 12.3579C51.2654 12.1069 51.111 11.8262 51.0099 11.5199C50.9087 11.2136 50.8555 10.9116 50.8555 10.6223C50.8555 10.3161 50.9087 9.99277 51.0205 9.66097C51.1323 9.32918 51.2974 9.02715 51.521 8.75065C51.7446 8.47415 52.0161 8.2487 52.3409 8.07004C52.6656 7.89138 53.049 7.80205 53.4962 7.80205C54.002 7.80205 54.4226 7.88287 54.758 8.04452C55.0934 8.20616 55.3543 8.4146 55.5513 8.66558C55.743 8.91655 55.8814 9.21007 55.9612 9.54187C56.0411 9.87367 56.0837 10.2097 56.0837 10.55C56.0997 10.8563 56.0358 11.1668 55.9133 11.4816Z" fill="#D33CBA"/>
<path d="M77.938 11.3374C77.938 10.4223 77.9542 9.48267 77.9866 8.52144C78.019 7.56021 77.992 6.60205 77.911 5.65315C77.911 5.56072 77.8029 5.47137 77.5867 5.38819C77.3705 5.30501 77.1219 5.23723 76.8463 5.17561C76.5706 5.11707 76.295 5.07394 76.0302 5.04313C75.7599 5.0154 75.5654 5 75.4411 5C75.1546 5 74.8682 5.00616 74.5926 5.01849C74.3169 5.03081 74.0629 5.05546 73.8359 5.09859C73.6089 5.13864 73.4252 5.20642 73.2793 5.30193C73.1333 5.39743 73.0631 5.52375 73.0631 5.69012C73.0631 6.26624 73.0631 6.79307 73.0631 7.27368C73.0631 7.7543 73.0631 8.22567 73.0631 8.68164C73.0631 9.14069 73.0739 9.6059 73.0955 10.0804C73.1171 10.5548 73.1442 11.0878 73.1874 11.6732C73.0415 11.5099 72.8145 11.2449 72.5064 10.8814C72.1984 10.5178 71.8417 10.1142 71.4417 9.66752C71.0418 9.2208 70.6202 8.75866 70.1771 8.27805C69.7339 7.79743 69.3069 7.34763 68.8962 6.93171C68.4854 6.51579 68.1125 6.16149 67.7829 5.86573C67.4532 5.57304 67.2046 5.39743 67.0424 5.3389C66.8154 5.25571 66.556 5.18177 66.2696 5.11091C65.9831 5.04005 65.4967 5.00616 64.8158 5.00616C64.5672 5.00616 64.3077 5.01232 64.0267 5.02465C63.7511 5.03697 63.4862 5.06162 63.2376 5.10475C62.989 5.1448 62.7783 5.20334 62.6053 5.28036C62.4324 5.35738 62.3297 5.46521 62.3135 5.60693C62.2108 6.45109 62.1621 7.32914 62.1729 8.238C62.1838 9.14686 62.1675 10.0249 62.1243 10.8691C62.0811 11.8673 62.054 12.8347 62.0324 13.7743C62.0108 14.714 62 15.5828 62 16.3807C62 16.5225 62.1135 16.6303 62.3405 16.7073C62.5675 16.7843 62.8215 16.846 63.0971 16.8922C63.3728 16.9384 63.6484 16.9692 63.9132 16.9815C64.178 16.9938 64.3564 17 64.4374 17C64.5401 17 64.7293 16.9938 65.0103 16.9815C65.286 16.9692 65.5724 16.9476 65.8588 16.9107C66.1453 16.8768 66.4101 16.8244 66.6479 16.7597C66.8857 16.695 67.0208 16.6149 67.064 16.5225C67.064 16.5101 67.064 16.4331 67.064 16.2945C67.064 16.1528 67.064 15.971 67.064 15.7492C67.064 15.5273 67.064 15.284 67.064 15.019C67.064 14.754 67.0586 14.5014 67.0478 14.2611C67.037 14.0208 67.0316 13.8021 67.0316 13.611C67.0316 13.4169 67.0316 13.2845 67.0316 13.2136C67.0316 12.8039 67.0316 12.4434 67.0316 12.1322C67.0316 11.8211 67.0208 11.4606 66.9992 11.0508C67.2262 11.2727 67.5018 11.5469 67.8315 11.8703C68.1612 12.1938 68.5233 12.542 68.9124 12.9178C69.3015 13.2937 69.7069 13.6757 70.1176 14.0608C70.5284 14.449 70.9283 14.8157 71.3228 15.1607C71.712 15.5058 72.0903 15.82 72.4524 16.1035C72.8145 16.3838 73.1279 16.6087 73.3928 16.772C73.4522 16.8059 73.5495 16.8367 73.6846 16.8614C73.8197 16.886 73.9656 16.9076 74.1332 16.9322C74.2953 16.9569 74.4629 16.9692 74.625 16.9754C74.7871 16.9815 74.9222 16.9846 75.0249 16.9846C75.1276 16.9846 75.333 16.9784 75.6411 16.9661C75.9491 16.9538 76.2626 16.9353 76.5814 16.9137C76.9003 16.8891 77.1922 16.8583 77.4624 16.8182C77.7272 16.7782 77.8731 16.7289 77.8947 16.6673C77.9164 16.6334 77.9272 16.5163 77.9272 16.3253C77.9272 16.1312 77.9326 15.897 77.9434 15.6198C77.9542 15.3456 77.9596 15.0467 77.9596 14.7294C77.9596 14.4121 77.9542 14.1101 77.9434 13.8236C77.9326 13.5371 77.9272 13.2814 77.9272 13.0565C77.9272 12.8347 77.9272 12.6745 77.9272 12.582V11.3374H77.938Z" fill="#D33CBA"/>
<path d="M37.7156 7.4536C37.8487 5.63721 37.8114 5.13101 37.7848 4.25897C37.7475 3.02536 37.2098 2.15332 36.4698 1.65137C36.5017 2.88923 36.4644 4.67159 36.0598 5.16929C35.7723 5.51811 35.1441 5.72229 34.3348 5.72229H34.3295C33.9089 5.72229 33.4404 5.66274 33.0464 5.53938C33.0517 5.75207 33.0624 5.90095 33.0624 6.02006L33.0677 8.45326L33.0996 13.5834V16.1357C33.0996 16.2165 33.1582 16.2888 33.2806 16.3526C33.3818 16.4164 33.5522 16.476 33.7971 16.5228C34.042 16.5696 34.3029 16.6079 34.5904 16.6334C34.8725 16.6589 35.1494 16.6802 35.4103 16.6929C35.6711 16.7057 35.8788 16.7185 36.0172 16.7185C36.1397 16.7185 36.3047 16.7142 36.5177 16.7057C36.7306 16.6972 36.9436 16.6717 37.1566 16.6334C37.3695 16.5951 37.5505 16.5356 37.7049 16.4632C37.8593 16.3909 37.9339 16.2803 37.9339 16.1357C37.9339 16.1357 38.0829 14.4937 37.9498 12.2009C38.0137 11.1842 37.6411 8.47027 37.7156 7.4536Z" fill="#D33CBA"/>
<path d="M34.3403 5.36057C34.9845 5.36057 35.485 5.21594 35.682 4.97347C35.7086 4.94369 35.7299 4.90541 35.7512 4.85861C35.7352 4.87988 35.7246 4.88414 35.7246 4.88414C35.9215 4.29711 36.0333 2.93162 35.9162 1.3492C35.9162 1.33643 35.9109 1.32793 35.9109 1.31517C35.831 0.966351 35.7458 0.702612 35.6713 0.604774C35.3199 0.141105 34.8621 -0.0120333 34.319 0.000728211C33.6109 0.0219974 33.5257 0.264467 33.35 0.56649C33.0998 0.996128 32.7963 4.07165 33.0519 4.99048C33.0572 5.02026 33.0678 5.04153 33.0732 5.06705C33.0945 5.10959 33.1211 5.14362 33.153 5.17765C33.4672 5.28825 33.8984 5.36057 34.3403 5.36057C34.3403 5.36057 34.335 5.36057 34.3403 5.36057ZM33.8132 0.881274C33.6109 1.14927 33.3234 2.32333 33.3234 2.32333C33.3234 2.25101 33.3926 1.14927 33.5257 0.757913C33.6588 0.366559 34.2178 0.200659 34.6384 0.311259C34.6331 0.702613 34.0102 0.617536 33.8132 0.881274Z" fill="#D33CBA"/>
</svg>
