<svg width="117" height="39" viewBox="0 0 117 39" fill="none" xmlns="http://www.w3.org/2000/svg">
<path d="M0 38.9076V33.3711H0.621577V35.7645H3.79289V33.3711H4.41447V38.9076H3.79289V36.3826H0.621577V38.9076H0Z" fill="black"/>
<path d="M11.366 39.0004C10.8586 39.0004 10.4019 38.8689 9.9833 38.619C9.56468 38.3691 9.23486 38.014 8.98116 37.5801C8.74014 37.1461 8.61328 36.6595 8.61328 36.1335C8.61328 35.6074 8.74014 35.1209 8.98116 34.6869C9.22218 34.2529 9.552 33.8978 9.9833 33.648C10.4019 33.3981 10.8713 33.2666 11.366 33.2666C11.8734 33.2666 12.3301 33.3981 12.7487 33.648C13.1673 33.8978 13.4971 34.2398 13.7508 34.6869C13.9918 35.1209 14.1187 35.6074 14.1187 36.1335C14.1187 36.6595 13.9918 37.1461 13.7508 37.5801C13.5098 38.014 13.18 38.3691 12.7487 38.619C12.3301 38.882 11.8607 39.0004 11.366 39.0004ZM11.366 38.3691C11.7465 38.3691 12.1017 38.2771 12.4316 38.0798C12.7614 37.8825 13.0151 37.6195 13.2053 37.2776C13.3956 36.9357 13.4971 36.5543 13.4971 36.1466C13.4971 35.739 13.3956 35.3576 13.2053 35.0157C13.0151 34.6737 12.7614 34.3976 12.4316 34.2003C12.1017 34.003 11.7592 33.8978 11.366 33.8978C10.9854 33.8978 10.6302 34.003 10.3004 34.2003C9.97061 34.3976 9.7169 34.6737 9.52662 35.0157C9.33634 35.3576 9.24754 35.739 9.24754 36.1466C9.24754 36.5543 9.33634 36.9357 9.52662 37.2776C9.7169 37.6195 9.97061 37.8825 10.3004 38.0798C10.6176 38.2771 10.9727 38.3691 11.366 38.3691Z" fill="black"/>
<path d="M18.2922 38.9076V33.3711H21.3113V33.976H18.9265V38.9076H18.2922Z" fill="black"/>
<path d="M26.3976 38.9076V33.976H24.6724V33.3711H28.757V33.976H27.0318V38.9076H26.3976Z" fill="black"/>
<path d="M32.7275 38.9076V33.3711H36.457V33.9892H33.3491V35.7645H35.8862V36.3826H33.3491V38.2763H36.5077V38.9076H32.7275Z" fill="black"/>
<path d="M40.6943 38.9076V33.3711H42.724C43.0284 33.3711 43.2948 33.4369 43.5231 33.5552C43.7515 33.6736 43.9291 33.8445 44.0432 34.0549C44.1701 34.2785 44.2335 34.5152 44.2335 34.8045C44.2335 34.9755 44.1955 35.1465 44.132 35.2911C44.0686 35.4489 43.9798 35.5936 43.8657 35.7119C43.7515 35.8303 43.6246 35.9224 43.4978 35.975C43.6881 36.0144 43.853 36.1065 44.0052 36.238C44.1574 36.3695 44.2843 36.5404 44.3731 36.7377C44.4619 36.935 44.4999 37.1454 44.4999 37.3689C44.4999 37.6846 44.4238 37.9607 44.2843 38.1843C44.1447 38.421 43.9544 38.592 43.7134 38.7235C43.4724 38.8418 43.2187 38.9076 42.9396 38.9076H40.6943ZM42.6986 35.7645C42.8635 35.7645 43.0157 35.7251 43.168 35.6462C43.3075 35.5673 43.4217 35.4489 43.5105 35.3043C43.5993 35.1596 43.6373 35.0018 43.6373 34.844C43.6373 34.673 43.5993 34.5152 43.5231 34.3837C43.447 34.239 43.3456 34.1338 43.206 34.0549C43.0665 33.976 42.9016 33.9366 42.724 33.9366H41.3286V35.7777H42.6986V35.7645ZM42.9143 38.3553C43.1045 38.3553 43.2694 38.3158 43.409 38.2237C43.5612 38.1317 43.6754 38.0133 43.7515 37.8555C43.8403 37.6977 43.8783 37.5268 43.8783 37.3295C43.8783 37.1454 43.8403 36.9744 43.7515 36.8166C43.6627 36.6588 43.5358 36.5404 43.3836 36.4484C43.2187 36.3563 43.0411 36.3169 42.8381 36.3169H41.3032V38.3816H42.9143V38.3553Z" fill="black"/>
<path d="M50.9949 39.0004C50.4875 39.0004 50.0308 38.8689 49.6122 38.619C49.1936 38.3691 48.8638 38.014 48.6101 37.5801C48.369 37.1461 48.2422 36.6595 48.2422 36.1335C48.2422 35.6074 48.369 35.1209 48.6101 34.6869C48.8511 34.2529 49.1809 33.8978 49.6122 33.648C50.0308 33.3981 50.5002 33.2666 50.9949 33.2666C51.5023 33.2666 51.959 33.3981 52.3776 33.648C52.7962 33.8978 53.126 34.2398 53.3797 34.6869C53.6207 35.1209 53.7476 35.6074 53.7476 36.1335C53.7476 36.6595 53.6207 37.1461 53.3797 37.5801C53.1387 38.014 52.8089 38.3691 52.3776 38.619C51.959 38.882 51.5023 39.0004 50.9949 39.0004ZM50.9949 38.3691C51.3754 38.3691 51.7306 38.2771 52.0604 38.0798C52.3903 37.8825 52.644 37.6195 52.8343 37.2776C53.0245 36.9357 53.126 36.5543 53.126 36.1466C53.126 35.739 53.0245 35.3576 52.8343 35.0157C52.644 34.6737 52.3903 34.3976 52.0604 34.2003C51.7306 34.003 51.3881 33.8978 50.9949 33.8978C50.6143 33.8978 50.2591 34.003 49.9293 34.2003C49.5995 34.3976 49.3458 34.6737 49.1555 35.0157C48.9652 35.3576 48.8765 35.739 48.8765 36.1466C48.8765 36.5543 48.9652 36.9357 49.1555 37.2776C49.3458 37.6195 49.5995 37.8825 49.9293 38.0798C50.2591 38.2771 50.6143 38.3691 50.9949 38.3691Z" fill="black"/>
<path d="M61.7901 38.9079V34.384L58.5427 38.9079H57.9211V33.3714H58.5427V37.8559L61.7648 33.3714H62.4117V38.9079H61.7901ZM60.5977 32.5298C60.7246 32.4509 60.8261 32.3457 60.9022 32.2141C60.9656 32.0826 61.0037 31.9248 61.0164 31.7407H60.4582C60.4582 31.8459 60.4455 31.938 60.4328 32.0037C60.4075 32.0695 60.3821 32.1221 60.3313 32.1484C60.2806 32.1878 60.2172 32.201 60.1284 32.201C60.0396 32.201 59.9762 32.1878 59.9254 32.1484C59.8747 32.1221 59.8366 32.0695 59.8239 32.0037C59.7986 31.938 59.7859 31.8459 59.7859 31.7407H59.2277C59.2277 31.9117 59.2658 32.0695 59.3419 32.201C59.4053 32.3325 59.5195 32.4509 59.6463 32.5298C59.7859 32.6087 59.9381 32.6481 60.1284 32.6481C60.306 32.6481 60.4582 32.6087 60.5977 32.5298Z" fill="black"/>
<path d="M74.2466 39.0004C73.7392 39.0004 73.2825 38.8689 72.8639 38.619C72.4453 38.3691 72.1155 38.014 71.8618 37.5801C71.6207 37.1461 71.4939 36.6595 71.4939 36.1335C71.4939 35.6074 71.6207 35.1209 71.8618 34.6869C72.1028 34.2529 72.4326 33.8978 72.8639 33.648C73.2825 33.3981 73.7519 33.2666 74.2466 33.2666C74.6018 33.2666 74.9189 33.3324 75.236 33.4507C75.5405 33.5691 75.8196 33.74 76.0606 33.9636L75.6927 34.4502C75.4898 34.2792 75.2741 34.1346 75.0204 34.0425C74.7794 33.9504 74.513 33.8978 74.2466 33.8978C73.866 33.8978 73.5108 34.003 73.181 34.2003C72.8639 34.3976 72.5975 34.6737 72.4072 35.0157C72.217 35.3576 72.1282 35.739 72.1282 36.1466C72.1282 36.5543 72.2296 36.9357 72.4072 37.2776C72.5975 37.6195 72.8512 37.8825 73.181 38.0798C73.5108 38.2771 73.8533 38.3691 74.2466 38.3691C74.513 38.3691 74.7667 38.3165 75.0077 38.2245C75.2487 38.1324 75.4771 37.9877 75.7054 37.7905L76.0733 38.2771C75.8196 38.5006 75.5405 38.6716 75.236 38.8031C74.9189 38.9346 74.6018 39.0004 74.2466 39.0004Z" fill="black"/>
<path d="M80.1201 38.9076V33.3711H83.8496V33.9892H80.7417V35.7645H83.2787V36.3826H80.7417V38.2763H83.9003V38.9076H80.1201Z" fill="black"/>
<path d="M88.0994 38.9076V33.3711H90.0022C90.37 33.3711 90.6872 33.45 90.9536 33.5947C91.2199 33.7393 91.4356 33.9497 91.5878 34.2127C91.74 34.4758 91.8035 34.7914 91.8035 35.1333C91.8035 35.5015 91.7274 35.8172 91.5878 36.0802C91.4483 36.3563 91.2326 36.5667 90.9662 36.7114C90.6999 36.8561 90.37 36.935 90.0022 36.935H88.7209V38.8944H88.0994V38.9076ZM89.9514 36.3563C90.1924 36.3563 90.4081 36.3037 90.5984 36.2117C90.776 36.1065 90.9282 35.975 91.0297 35.7908C91.1312 35.6067 91.1819 35.3963 91.1819 35.1596C91.1819 34.9229 91.1312 34.7125 91.0297 34.5284C90.9282 34.3443 90.7887 34.2127 90.5984 34.1207C90.4081 34.0286 90.2051 33.976 89.9514 33.976H88.7209V36.3563H89.9514Z" fill="black"/>
<path d="M95.8118 38.9076V33.3711H97.8414C98.1459 33.3711 98.4123 33.4369 98.6406 33.5552C98.8689 33.6736 99.0465 33.8445 99.1607 34.0549C99.2875 34.2785 99.351 34.5152 99.351 34.8045C99.351 34.9755 99.3129 35.1465 99.2495 35.2911C99.186 35.4489 99.0973 35.5936 98.9831 35.7119C98.8689 35.8303 98.7421 35.9224 98.6152 35.975C98.8055 36.0144 98.9704 36.1065 99.1226 36.238C99.2748 36.3695 99.4017 36.5404 99.4905 36.7377C99.5793 36.935 99.63 37.1454 99.63 37.3689C99.63 37.6846 99.5539 37.9607 99.4144 38.1843C99.2748 38.421 99.0846 38.592 98.8435 38.7235C98.6025 38.8418 98.3488 38.9076 98.0698 38.9076H95.8118ZM97.816 35.7645C97.981 35.7645 98.1332 35.7251 98.2854 35.6462C98.4249 35.5673 98.5391 35.4489 98.6279 35.3043C98.7167 35.1596 98.7547 35.0018 98.7547 34.844C98.7547 34.673 98.7167 34.5152 98.6406 34.3837C98.5645 34.239 98.463 34.1338 98.3235 34.0549C98.1839 33.976 98.019 33.9366 97.8414 33.9366H96.446V35.7777H97.816V35.7645ZM98.0317 38.3553C98.222 38.3553 98.3869 38.3158 98.5264 38.2237C98.6786 38.1317 98.7928 38.0133 98.8689 37.8555C98.9577 37.6977 98.9958 37.5268 98.9958 37.3295C98.9958 37.1454 98.9577 36.9744 98.8689 36.8166C98.7801 36.6588 98.6533 36.5404 98.501 36.4484C98.3361 36.3563 98.1585 36.3169 97.9556 36.3169H96.4207V38.3816H98.0317V38.3553Z" fill="black"/>
<path d="M107.609 38.9076V34.3837L104.362 38.9076H103.74V33.3711H104.362V37.8555L107.584 33.3711H108.231V38.9076H107.609Z" fill="black"/>
<path d="M115.169 39.0004C114.662 39.0004 114.205 38.8689 113.787 38.619C113.368 38.3691 113.038 38.014 112.784 37.5801C112.543 37.1461 112.417 36.6595 112.417 36.1335C112.417 35.6074 112.543 35.1209 112.784 34.6869C113.025 34.2529 113.355 33.8978 113.787 33.648C114.205 33.3981 114.674 33.2666 115.169 33.2666C115.524 33.2666 115.842 33.3324 116.159 33.4507C116.463 33.5691 116.742 33.74 116.983 33.9636L116.615 34.4502C116.412 34.2792 116.197 34.1346 115.943 34.0425C115.702 33.9504 115.436 33.8978 115.169 33.8978C114.789 33.8978 114.433 34.003 114.104 34.2003C113.787 34.3976 113.52 34.6737 113.33 35.0157C113.14 35.3576 113.051 35.739 113.051 36.1466C113.051 36.5543 113.152 36.9357 113.33 37.2776C113.52 37.6195 113.774 37.8825 114.104 38.0798C114.433 38.2771 114.776 38.3691 115.169 38.3691C115.436 38.3691 115.689 38.3165 115.93 38.2245C116.171 38.1324 116.4 37.9877 116.628 37.7905L116.996 38.2771C116.742 38.5006 116.463 38.6716 116.159 38.8031C115.842 38.9346 115.512 39.0004 115.169 39.0004Z" fill="black"/>
<path d="M23.3958 8.08229C23.0713 7.95751 22.6982 7.85584 22.2845 7.76342C21.8707 7.67561 21.457 7.61091 21.0595 7.5647C20.6539 7.52311 20.3618 7.5 20.1753 7.5C19.7453 7.5 19.3154 7.50924 18.9016 7.52773C18.4879 7.54621 18.1066 7.58318 17.7659 7.64788C17.4252 7.70796 17.1494 7.80963 16.9303 7.95289C16.7113 8.09615 16.6059 8.28562 16.6059 8.53517C16.6059 9.39936 16.6059 10.1896 16.6059 10.9105C16.6059 11.6315 16.6059 12.3385 16.6059 13.0225C16.6059 13.711 16.6221 14.4089 16.6545 15.1205C16.687 15.8322 16.7275 16.6317 16.7924 17.5098C16.5734 17.2648 16.2327 16.8674 15.7703 16.3221C15.3079 15.7768 14.7725 15.1714 14.1722 14.5013C13.5719 13.8312 12.9391 13.138 12.2739 12.4171C11.6087 11.6961 10.9678 11.0214 10.3513 10.3976C9.73475 9.77368 9.175 9.24223 8.68015 8.79859C8.1853 8.35956 7.81213 8.09615 7.56876 8.00834C7.22805 7.88357 6.83866 7.77266 6.40871 7.66637C5.97876 7.56008 5.24865 7.50924 4.2265 7.50924C3.85334 7.50924 3.46395 7.51849 3.04211 7.53697C2.62838 7.55546 2.23088 7.59243 1.85771 7.65712C1.48455 7.7172 1.16817 7.80501 0.908576 7.92054C0.648983 8.03607 0.49485 8.19782 0.470513 8.4104C0.316379 9.67664 0.243368 10.9937 0.259593 12.357C0.275818 13.7203 0.251481 15.0374 0.186583 16.3036C0.121685 17.8009 0.0811234 19.252 0.0486742 20.6615C0.0162251 22.071 0 23.3742 0 24.5711C0 24.7837 0.170358 24.9454 0.511074 25.061C0.85179 25.1765 1.23307 25.2689 1.64679 25.3383C2.06052 25.4076 2.47425 25.4538 2.87175 25.4723C3.26925 25.4908 3.53696 25.5 3.65864 25.5C3.81278 25.5 4.09671 25.4908 4.51855 25.4723C4.93227 25.4538 5.36222 25.4214 5.79217 25.366C6.22212 25.3151 6.61963 25.2366 6.97657 25.1395C7.33351 25.0425 7.53632 24.9223 7.60121 24.7837C7.60121 24.7652 7.60121 24.6497 7.60121 24.4417C7.60121 24.2291 7.60121 23.9565 7.60121 23.6237C7.60121 23.291 7.60121 22.9259 7.60121 22.5285C7.60121 22.1311 7.5931 21.7521 7.57688 21.3917C7.56065 21.0312 7.55254 20.7031 7.55254 20.4166C7.55254 20.1254 7.55254 19.9267 7.55254 19.8204C7.55254 19.2058 7.55254 18.6651 7.55254 18.1983C7.55254 17.7316 7.53632 17.1909 7.50387 16.5763C7.84458 16.909 8.25831 17.3203 8.75316 17.8055C9.24801 18.2908 9.79153 18.813 10.3756 19.3768C10.9597 19.9406 11.5681 20.5136 12.1847 21.0913C12.8012 21.6736 13.4015 22.2235 13.9937 22.7411C14.5778 23.2587 15.1456 23.73 15.6892 24.1552C16.2327 24.5757 16.7032 24.9131 17.1007 25.158C17.1899 25.2089 17.336 25.2551 17.5388 25.292C17.7416 25.329 17.9606 25.3614 18.2121 25.3983C18.4555 25.4353 18.7069 25.4538 18.9503 25.463C19.1937 25.4723 19.3965 25.4769 19.5506 25.4769C19.7047 25.4769 20.013 25.4676 20.4754 25.4492C20.9378 25.4307 21.4083 25.403 21.887 25.3706C22.3656 25.3336 22.8036 25.2874 23.2093 25.2273C23.6068 25.1673 23.8258 25.0933 23.8582 25.0009C23.8907 24.9501 23.9069 24.7745 23.9069 24.4879C23.9069 24.1968 23.915 23.8456 23.9312 23.4297C23.9475 23.0184 23.9556 22.5701 23.9556 22.0941C23.9556 21.6181 23.9475 21.1652 23.9312 20.7354C23.915 20.3056 23.9069 19.9221 23.9069 19.5847C23.9069 19.252 23.9069 19.0117 23.9069 18.873V17.0245C23.9069 15.652 23.9312 14.2425 23.9799 12.8006C24.0286 11.3588 23.988 9.92157 23.8664 8.4982C23.8826 8.34108 23.7203 8.20706 23.3958 8.08229Z" fill="#D33CBA"/>
<path d="M47.0457 8.34693C47.0457 8.00875 46.9419 7.74714 46.7263 7.56209C46.5107 7.37705 46.2471 7.24944 45.9277 7.17925C45.6082 7.10906 45.2728 7.0644 44.9214 7.05163C44.57 7.03887 44.2426 7.03249 43.9391 7.03249C43.7235 7.03249 43.4041 7.03887 42.9808 7.05163C42.5576 7.0644 42.1183 7.10906 41.6791 7.17925C41.2398 7.24944 40.8565 7.35791 40.5371 7.49191C40.2176 7.6259 40.0579 7.81733 40.0579 8.05979V8.4235C39.3312 7.67057 38.4687 7.17925 37.4784 6.94954C36.4881 6.71984 35.434 6.60498 34.3079 6.60498C32.6947 6.60498 31.3131 6.8985 30.1552 7.47915C28.9972 8.05979 28.0388 8.8191 27.2802 9.73793C26.5215 10.6631 25.9625 11.6904 25.6111 12.8198C25.2597 13.9492 25.084 15.0722 25.084 16.1953C25.084 17.3374 25.2597 18.4477 25.6111 19.5324C25.9625 20.6171 26.4975 21.5742 27.2322 22.4101C27.959 23.246 28.9013 23.9224 30.0354 24.4328C31.1774 24.9433 32.551 25.1985 34.1642 25.1985C35.2583 25.1985 36.2965 25.039 37.2708 24.7263C38.2451 24.4137 39.1395 23.9734 39.9621 23.4119C39.994 23.4821 40.01 23.565 40.01 23.648C40.01 23.7309 40.01 23.8139 40.01 23.8841C40.01 24.2031 40.1218 24.4392 40.3534 24.5923C40.585 24.7519 40.8645 24.8603 41.1999 24.9178C41.5353 24.9752 41.8867 25.0071 42.2461 25.0071C42.6135 25.0071 42.9329 25.0071 43.2044 25.0071C43.5718 25.0071 43.9791 25.0007 44.4343 24.988C44.8895 24.9752 45.3128 24.9178 45.7121 24.8029C46.1034 24.6944 46.4388 24.5285 46.7183 24.3116C46.9898 24.0946 47.1256 23.7756 47.1256 23.3609V19.6026L47.0457 12.1052V8.34693ZM39.3791 17.4076C39.2274 17.8606 38.9958 18.2626 38.6923 18.6263C38.3888 18.99 37.9895 19.2836 37.5024 19.5005C37.0152 19.7174 36.4562 19.8259 35.8173 19.8259C35.1784 19.8259 34.6274 19.7111 34.1722 19.4814C33.717 19.2516 33.3416 18.9517 33.0541 18.588C32.7666 18.2243 32.551 17.816 32.4152 17.3693C32.2795 16.9227 32.2076 16.476 32.2076 16.0357C32.2076 15.621 32.2795 15.168 32.4152 14.6703C32.551 14.1726 32.7666 13.7068 33.0541 13.2665C33.3416 12.8262 33.717 12.4561 34.1722 12.1562C34.6274 11.85 35.1624 11.7032 35.7694 11.7032C36.4083 11.7032 36.9673 11.85 37.4544 12.1435C37.9416 12.437 38.3409 12.8007 38.6603 13.2346C38.9798 13.6685 39.2114 14.1407 39.3711 14.6384C39.5228 15.1361 39.6027 15.6019 39.6027 16.0421C39.6107 16.5015 39.5308 16.9546 39.3791 17.4076Z" fill="#D33CBA"/>
<path d="M68.0575 20.579C67.8898 20.4706 67.6982 20.4131 67.4905 20.4131C67.2749 20.4131 67.0673 20.4131 66.8516 20.4131C66.6041 20.4131 66.3884 20.3621 66.1888 20.2664C65.9891 20.1707 65.8614 19.9027 65.7975 19.4624C65.7336 19.2199 65.7176 18.9775 65.7496 18.735C65.7815 18.4925 65.7975 18.2501 65.7975 18.0076V13.9941L65.8454 5.9033V1.89618C65.8454 1.62819 65.7496 1.40486 65.5499 1.21982C65.3503 1.03478 65.1107 0.90078 64.8232 0.798687C64.5357 0.702976 64.2322 0.632789 63.9128 0.600885C63.5933 0.562601 63.2978 0.543457 63.0263 0.543457H61.1096C60.5905 0.543457 60.0714 0.620027 59.5603 0.779546C59.0412 0.939065 58.7378 1.24534 58.6499 1.71114C58.586 2.03018 58.5541 2.48321 58.5381 3.07662C58.5221 3.67003 58.5142 4.30173 58.5142 4.97171C58.5142 5.64169 58.5221 6.29252 58.5381 6.92422C58.5541 7.55591 58.5621 8.05361 58.5621 8.41732V11.3716L58.61 17.2419V20.1962C58.61 21.8233 59.0732 23.0803 59.9996 23.9672C60.926 24.8542 62.4593 25.3008 64.5836 25.3008C65.2544 25.3008 65.8374 25.2753 66.3405 25.2306C66.8436 25.1796 67.2669 25.0647 67.6183 24.8861C67.9697 24.701 68.2252 24.433 68.393 24.0629C68.5607 23.6992 68.6405 23.2143 68.6405 22.6017C68.6405 21.9701 68.5846 21.5043 68.4808 21.198C68.361 20.8981 68.2252 20.6875 68.0575 20.579Z" fill="#D33CBA"/>
<path d="M80.2683 6.49023C78.5033 6.49023 76.9141 6.71994 75.5006 7.18574C74.087 7.64515 72.8891 8.29599 71.9148 9.13825C70.9405 9.97413 70.1978 10.9823 69.6787 12.1436C69.1596 13.3113 68.9041 14.5874 68.9041 15.972C68.9041 18.8625 69.8384 21.1277 71.7072 22.7548C73.5759 24.3819 76.3551 25.1986 80.0367 25.1986C81.8016 25.1986 83.3908 24.9753 84.8044 24.5223C86.2179 24.0756 87.4318 23.4439 88.43 22.6272C89.4363 21.8104 90.2029 20.8342 90.738 19.692C91.2731 18.5499 91.5366 17.2865 91.5366 15.9019C91.5366 12.9858 90.6023 10.6888 88.7335 9.01063C86.8648 7.32611 84.0377 6.49023 80.2683 6.49023ZM83.87 17.2227C83.6863 17.6948 83.4228 18.1287 83.0714 18.518C82.72 18.9072 82.2887 19.2262 81.7696 19.4687C81.2505 19.7112 80.6755 19.8324 80.0367 19.8324C79.3978 19.8324 78.8387 19.7112 78.3676 19.4687C77.8964 19.2262 77.5051 18.9136 77.2016 18.5371C76.8981 18.1606 76.6665 17.7395 76.5148 17.2801C76.3631 16.8207 76.2832 16.3676 76.2832 15.9338C76.2832 15.4743 76.3631 14.9894 76.5308 14.4917C76.6985 13.994 76.946 13.541 77.2815 13.1262C77.6169 12.7115 78.0242 12.3733 78.5113 12.1053C78.9985 11.8373 79.5735 11.7033 80.2443 11.7033C81.003 11.7033 81.6339 11.8245 82.137 12.067C82.6401 12.3095 83.0314 12.6221 83.3269 12.9986C83.6144 13.3751 83.8221 13.8153 83.9419 14.313C84.0616 14.8107 84.1255 15.3148 84.1255 15.8253C84.1495 16.2847 84.0537 16.7505 83.87 17.2227Z" fill="#D33CBA"/>
<path d="M116.907 17.006C116.907 15.6335 116.931 14.224 116.98 12.7822C117.029 11.3403 116.988 9.90308 116.866 8.47972C116.866 8.34108 116.704 8.20706 116.38 8.08229C116.056 7.95751 115.683 7.85584 115.269 7.76342C114.856 7.67561 114.442 7.61091 114.045 7.5647C113.64 7.52311 113.348 7.5 113.162 7.5C112.732 7.5 112.302 7.50924 111.889 7.52773C111.475 7.54621 111.094 7.58318 110.754 7.64788C110.413 7.70796 110.138 7.80963 109.919 7.95289C109.7 8.09615 109.595 8.28562 109.595 8.53517C109.595 9.39936 109.595 10.1896 109.595 10.9105C109.595 11.6315 109.595 12.3385 109.595 13.0225C109.595 13.711 109.611 14.4089 109.643 15.1205C109.676 15.8322 109.716 16.6317 109.781 17.5098C109.562 17.2648 109.222 16.8674 108.76 16.3221C108.298 15.7768 107.762 15.1714 107.163 14.5013C106.563 13.8312 105.93 13.138 105.266 12.4171C104.601 11.6961 103.96 11.0214 103.344 10.3976C102.728 9.77368 102.169 9.24223 101.674 8.79859C101.18 8.35956 100.807 8.09615 100.564 8.00834C100.223 7.88357 99.834 7.77266 99.4044 7.66637C98.9747 7.56008 98.2451 7.50924 97.2236 7.50924C96.8507 7.50924 96.4616 7.51848 96.0401 7.53697C95.6266 7.55546 95.2294 7.59243 94.8565 7.65712C94.4835 7.7172 94.1674 7.80501 93.908 7.92054C93.6485 8.03607 93.4945 8.19782 93.4702 8.4104C93.3162 9.67664 93.2432 10.9937 93.2594 12.357C93.2756 13.7203 93.2513 15.0374 93.1865 16.3036C93.1216 17.8009 93.0811 19.252 93.0486 20.6615C93.0162 22.071 93 23.3742 93 24.5711C93 24.7837 93.1702 24.9454 93.5107 25.061C93.8512 25.1765 94.2322 25.2689 94.6457 25.3383C95.0591 25.4076 95.4726 25.4538 95.8698 25.4723C96.267 25.4908 96.5346 25.5 96.6562 25.5C96.8102 25.5 97.0939 25.4908 97.5155 25.4723C97.9289 25.4538 98.3586 25.4214 98.7883 25.366C99.2179 25.3151 99.6152 25.2366 99.9719 25.1395C100.329 25.0425 100.531 24.9223 100.596 24.7837C100.596 24.7652 100.596 24.6497 100.596 24.4417C100.596 24.2291 100.596 23.9565 100.596 23.6237C100.596 23.291 100.596 22.9259 100.596 22.5285C100.596 22.1311 100.588 21.7521 100.572 21.3917C100.556 21.0312 100.547 20.7031 100.547 20.4166C100.547 20.1254 100.547 19.9267 100.547 19.8204C100.547 19.2058 100.547 18.6651 100.547 18.1983C100.547 17.7316 100.531 17.1909 100.499 16.5763C100.839 16.909 101.253 17.3203 101.747 17.8055C102.242 18.2908 102.785 18.813 103.369 19.3768C103.952 19.9406 104.56 20.5136 105.176 21.0913C105.793 21.6736 106.392 22.2235 106.984 22.7411C107.568 23.2587 108.135 23.73 108.679 24.1552C109.222 24.5757 109.692 24.9131 110.089 25.158C110.178 25.2089 110.324 25.2551 110.527 25.292C110.73 25.329 110.948 25.3614 111.2 25.3983C111.443 25.4353 111.694 25.4538 111.937 25.463C112.181 25.4723 112.383 25.4769 112.537 25.4769C112.691 25.4769 112.999 25.4677 113.462 25.4492C113.924 25.4307 114.394 25.403 114.872 25.3706C115.35 25.3336 115.788 25.2874 116.194 25.2273C116.591 25.1673 116.81 25.0933 116.842 25.0009C116.875 24.9501 116.891 24.7745 116.891 24.4879C116.891 24.1968 116.899 23.8456 116.915 23.4297C116.931 23.0184 116.939 22.5701 116.939 22.0941C116.939 21.6181 116.931 21.1652 116.915 20.7354C116.899 20.3056 116.891 19.9221 116.891 19.5847C116.891 19.252 116.891 19.0117 116.891 18.873V17.006H116.907Z" fill="#D33CBA"/>
<path d="M56.5734 11.1804C56.773 8.45582 56.7171 7.69651 56.6772 6.38846C56.6213 4.53804 55.8147 3.22998 54.7046 2.47705C54.7526 4.33385 54.6966 7.00739 54.0897 7.75394C53.6585 8.27716 52.7161 8.58344 51.5022 8.58344H51.4942C50.8633 8.58344 50.1606 8.49411 49.5696 8.30906C49.5776 8.6281 49.5935 8.85143 49.5935 9.03009L49.6015 12.6799L49.6494 20.3751V24.2035C49.6494 24.3248 49.7373 24.4332 49.921 24.529C50.0727 24.6247 50.3283 24.714 50.6956 24.7842C51.063 24.8544 51.4543 24.9118 51.8855 24.9501C52.3088 24.9884 52.7241 25.0203 53.1154 25.0394C53.5067 25.0586 53.8182 25.0777 54.0258 25.0777C54.2095 25.0777 54.4571 25.0713 54.7765 25.0586C55.096 25.0458 55.4154 25.0075 55.7348 24.9501C56.0543 24.8927 56.3258 24.8033 56.5574 24.6949C56.789 24.5864 56.9008 24.4205 56.9008 24.2035C56.9008 24.2035 57.1244 21.7406 56.9248 18.3013C57.0206 16.7763 56.4616 12.7054 56.5734 11.1804Z" fill="#D33CBA"/>
<path d="M51.5104 8.04085C52.4768 8.04085 53.2275 7.82391 53.5229 7.4602C53.5629 7.41554 53.5948 7.35811 53.6268 7.28792C53.6028 7.31982 53.5868 7.32621 53.5868 7.32621C53.8823 6.44566 54.05 4.39744 53.8743 2.02379C53.8743 2.00465 53.8663 1.99189 53.8663 1.97275C53.7466 1.44953 53.6188 1.05392 53.507 0.907161C52.9799 0.211658 52.2931 -0.01805 51.4785 0.00109232C50.4164 0.0329961 50.2886 0.396701 50.025 0.849735C49.6497 1.49419 49.1945 6.10748 49.5778 7.48572C49.5858 7.53039 49.6018 7.56229 49.6098 7.60058C49.6417 7.66439 49.6816 7.71543 49.7295 7.76648C50.2007 7.93238 50.8476 8.04085 51.5104 8.04085C51.5104 8.04085 51.5025 8.04085 51.5104 8.04085ZM50.7198 1.32191C50.4164 1.7239 49.9851 3.48499 49.9851 3.48499C49.9851 3.37651 50.0889 1.7239 50.2886 1.13687C50.4882 0.549839 51.3268 0.300989 51.9577 0.466889C51.9497 1.05392 51.0153 0.926303 50.7198 1.32191Z" fill="#D33CBA"/>
</svg>
