<svg width="1505" height="510" viewBox="0 0 1505 510" fill="none" xmlns="http://www.w3.org/2000/svg">
<path d="M0.147949 508.287V436.083H8.14199V467.297H48.9279V436.083H56.922V508.287H48.9279V475.358H8.14199V508.287H0.147949Z" fill="#808080"/>
<path d="M146.325 509.487C139.799 509.487 133.926 507.772 128.542 504.514C123.158 501.255 118.917 496.625 115.654 490.965C112.554 485.305 110.923 478.96 110.923 472.099C110.923 465.239 112.554 458.893 115.654 453.234C118.754 447.574 122.995 442.943 128.542 439.685C133.926 436.426 139.962 434.711 146.325 434.711C152.851 434.711 158.724 436.426 164.108 439.685C169.491 442.943 173.733 447.403 176.996 453.234C180.096 458.893 181.727 465.239 181.727 472.099C181.727 478.96 180.096 485.305 176.996 490.965C173.896 496.625 169.655 501.255 164.108 504.514C158.724 507.944 152.687 509.487 146.325 509.487ZM146.325 501.255C151.219 501.255 155.787 500.055 160.029 497.482C164.271 494.91 167.534 491.479 169.981 487.02C172.428 482.561 173.733 477.588 173.733 472.271C173.733 466.954 172.428 461.981 169.981 457.521C167.534 453.062 164.271 449.461 160.029 446.888C155.787 444.315 151.382 442.943 146.325 442.943C141.431 442.943 136.863 444.315 132.621 446.888C128.379 449.461 125.116 453.062 122.669 457.521C120.222 461.981 119.08 466.954 119.08 472.271C119.08 477.588 120.222 482.561 122.669 487.02C125.116 491.479 128.379 494.91 132.621 497.482C136.699 500.055 141.267 501.255 146.325 501.255Z" fill="#808080"/>
<path d="M235.402 508.287V436.083H274.23V443.972H243.559V508.287H235.402Z" fill="#808080"/>
<path d="M339.651 508.287V443.972H317.463V436.083H369.996V443.972H347.808V508.287H339.651Z" fill="#808080"/>
<path d="M421.06 508.287V436.083H469.024V444.144H429.054V467.297H461.682V475.358H429.054V500.054H469.676V508.287H421.06Z" fill="#808080"/>
<path d="M523.514 508.287V436.083H549.617C553.533 436.083 556.959 436.94 559.895 438.484C562.832 440.027 565.116 442.257 566.584 445.001C568.216 447.917 569.031 451.004 569.031 454.777C569.031 457.006 568.542 459.236 567.726 461.123C566.91 463.181 565.768 465.067 564.3 466.611C562.832 468.154 561.2 469.355 559.569 470.041C562.016 470.555 564.137 471.756 566.095 473.471C568.052 475.186 569.684 477.416 570.826 479.988C571.968 482.561 572.457 485.305 572.457 488.22C572.457 492.337 571.478 495.938 569.684 498.854C567.889 501.941 565.442 504.17 562.342 505.885C559.243 507.429 555.98 508.287 552.391 508.287H523.514ZM549.291 467.297C551.412 467.297 553.37 466.782 555.327 465.753C557.122 464.724 558.59 463.181 559.732 461.294C560.874 459.408 561.364 457.349 561.364 455.291C561.364 453.062 560.874 451.004 559.895 449.289C558.916 447.402 557.611 446.03 555.817 445.001C554.022 443.972 551.901 443.457 549.617 443.457H531.671V467.468H549.291V467.297ZM552.064 501.083C554.512 501.083 556.632 500.569 558.427 499.368C560.385 498.168 561.853 496.624 562.832 494.566C563.974 492.508 564.463 490.279 564.463 487.706C564.463 485.305 563.974 483.075 562.832 481.017C561.69 478.959 560.058 477.416 558.101 476.215C555.98 475.015 553.696 474.5 551.086 474.5H531.345V501.426H552.064V501.083Z" fill="#808080"/>
<path d="M655.987 509.487C649.461 509.487 643.588 507.772 638.204 504.514C632.82 501.255 628.579 496.625 625.316 490.965C622.216 485.305 620.585 478.96 620.585 472.099C620.585 465.239 622.216 458.893 625.316 453.234C628.416 447.574 632.657 442.943 638.204 439.685C643.588 436.426 649.624 434.711 655.987 434.711C662.513 434.711 668.386 436.426 673.77 439.685C679.153 442.943 683.395 447.403 686.658 453.234C689.758 458.893 691.389 465.239 691.389 472.099C691.389 478.96 689.758 485.305 686.658 490.965C683.558 496.625 679.317 501.255 673.77 504.514C668.386 507.944 662.513 509.487 655.987 509.487ZM655.987 501.255C660.881 501.255 665.449 500.055 669.691 497.482C673.933 494.91 677.196 491.479 679.643 487.02C682.09 482.561 683.395 477.588 683.395 472.271C683.395 466.954 682.09 461.981 679.643 457.521C677.196 453.062 673.933 449.461 669.691 446.888C665.449 444.315 661.044 442.943 655.987 442.943C651.093 442.943 646.525 444.315 642.283 446.888C638.041 449.461 634.778 453.062 632.331 457.521C629.884 461.981 628.742 466.954 628.742 472.271C628.742 477.588 629.884 482.561 632.331 487.02C634.778 491.479 638.041 494.91 642.283 497.482C646.525 500.055 651.093 501.255 655.987 501.255Z" fill="#808080"/>
<path d="M794.822 508.287V449.289L753.057 508.287H745.063V436.083H753.057V494.566L794.496 436.083H802.816V508.287H794.822ZM779.487 425.106C781.118 424.077 782.423 422.705 783.402 420.99C784.218 419.275 784.707 417.217 784.87 414.816H777.692C777.692 416.188 777.529 417.389 777.366 418.246C777.039 419.104 776.713 419.79 776.061 420.133C775.408 420.647 774.592 420.819 773.45 420.819C772.308 420.819 771.493 420.647 770.84 420.133C770.187 419.79 769.698 419.104 769.535 418.246C769.209 417.389 769.045 416.188 769.045 414.816H761.867C761.867 417.046 762.357 419.104 763.335 420.819C764.151 422.534 765.619 424.077 767.251 425.106C769.045 426.136 771.003 426.65 773.45 426.65C775.734 426.65 777.692 426.136 779.487 425.106Z" fill="#808080"/>
<path d="M955.03 509.487C948.504 509.487 942.631 507.772 937.247 504.514C931.863 501.255 927.622 496.625 924.359 490.965C921.259 485.305 919.628 478.96 919.628 472.099C919.628 465.239 921.259 458.893 924.359 453.234C927.458 447.574 931.7 442.943 937.247 439.685C942.631 436.426 948.667 434.711 955.03 434.711C959.598 434.711 963.677 435.569 967.755 437.112C971.671 438.656 975.26 440.885 978.36 443.801L973.628 450.147C971.018 447.917 968.244 446.031 964.982 444.83C961.882 443.63 958.456 442.943 955.03 442.943C950.136 442.943 945.567 444.315 941.326 446.888C937.247 449.461 933.821 453.062 931.374 457.521C928.927 461.981 927.785 466.954 927.785 472.271C927.785 477.588 929.09 482.561 931.374 487.02C933.821 491.479 937.084 494.91 941.326 497.482C945.567 500.055 949.972 501.255 955.03 501.255C958.456 501.255 961.719 500.569 964.818 499.369C967.918 498.168 970.855 496.282 973.791 493.709L978.523 500.055C975.26 502.97 971.671 505.2 967.755 506.915C963.677 508.63 959.598 509.487 955.03 509.487Z" fill="#808080"/>
<path d="M1030.57 508.287V436.083H1078.53V444.144H1038.56V467.297H1071.19V475.358H1038.56V500.054H1079.18V508.287H1030.57Z" fill="#808080"/>
<path d="M1133.18 508.287V436.083H1157.65C1162.39 436.083 1166.46 437.112 1169.89 438.998C1173.32 440.885 1176.09 443.629 1178.05 447.059C1180.01 450.489 1180.82 454.605 1180.82 459.065C1180.82 463.867 1179.84 467.983 1178.05 471.413C1176.25 475.015 1173.48 477.759 1170.05 479.645C1166.63 481.532 1162.39 482.561 1157.65 482.561H1141.18V508.115H1133.18V508.287ZM1157 475.014C1160.1 475.014 1162.88 474.329 1165.32 473.128C1167.61 471.756 1169.56 470.041 1170.87 467.64C1172.17 465.239 1172.83 462.495 1172.83 459.408C1172.83 456.32 1172.17 453.576 1170.87 451.175C1169.56 448.774 1167.77 447.059 1165.32 445.859C1162.88 444.658 1160.27 443.972 1157 443.972H1141.18V475.014H1157Z" fill="#808080"/>
<path d="M1232.37 508.287V436.083H1258.48C1262.39 436.083 1265.82 436.94 1268.76 438.484C1271.69 440.027 1273.98 442.257 1275.44 445.001C1277.08 447.917 1277.89 451.004 1277.89 454.777C1277.89 457.006 1277.4 459.236 1276.59 461.123C1275.77 463.181 1274.63 465.067 1273.16 466.611C1271.69 468.154 1270.06 469.355 1268.43 470.041C1270.88 470.555 1273 471.756 1274.96 473.471C1276.91 475.186 1278.54 477.416 1279.69 479.988C1280.83 482.561 1281.48 485.305 1281.48 488.22C1281.48 492.337 1280.5 495.938 1278.71 498.854C1276.91 501.941 1274.47 504.17 1271.37 505.885C1268.27 507.429 1265 508.287 1261.41 508.287H1232.37ZM1258.15 467.297C1260.27 467.297 1262.23 466.782 1264.19 465.753C1265.98 464.724 1267.45 463.181 1268.59 461.294C1269.73 459.408 1270.22 457.349 1270.22 455.291C1270.22 453.062 1269.73 451.004 1268.76 449.289C1267.78 447.402 1266.47 446.03 1264.68 445.001C1262.88 443.972 1260.76 443.457 1258.48 443.457H1240.53V467.468H1258.15V467.297ZM1260.92 501.083C1263.37 501.083 1265.49 500.569 1267.29 499.368C1269.25 498.168 1270.71 496.624 1271.69 494.566C1272.83 492.508 1273.32 490.279 1273.32 487.706C1273.32 485.305 1272.83 483.075 1271.69 481.017C1270.55 478.959 1268.92 477.416 1266.96 476.215C1264.84 475.015 1262.56 474.5 1259.95 474.5H1240.21V501.426H1260.92V501.083Z" fill="#808080"/>
<path d="M1384.1 508.287V449.289L1342.33 508.287H1334.34V436.083H1342.33V494.566L1383.77 436.083H1392.09V508.287H1384.1Z" fill="#808080"/>
<path d="M1481.33 509.487C1474.81 509.487 1468.93 507.772 1463.55 504.514C1458.17 501.255 1453.92 496.625 1450.66 490.965C1447.56 485.305 1445.93 478.96 1445.93 472.099C1445.93 465.239 1447.56 458.893 1450.66 453.234C1453.76 447.574 1458 442.943 1463.55 439.685C1468.93 436.426 1474.97 434.711 1481.33 434.711C1485.9 434.711 1489.98 435.569 1494.06 437.112C1497.97 438.656 1501.56 440.885 1504.66 443.801L1499.93 450.147C1497.32 447.917 1494.55 446.031 1491.28 444.83C1488.18 443.63 1484.76 442.943 1481.33 442.943C1476.44 442.943 1471.87 444.315 1467.63 446.888C1463.55 449.461 1460.12 453.062 1457.68 457.521C1455.23 461.981 1454.09 466.954 1454.09 472.271C1454.09 477.588 1455.39 482.561 1457.68 487.02C1460.12 491.479 1463.39 494.91 1467.63 497.482C1471.87 500.055 1476.27 501.255 1481.33 501.255C1484.76 501.255 1488.02 500.569 1491.12 499.369C1494.22 498.168 1497.16 496.282 1500.09 493.709L1504.82 500.055C1501.56 502.97 1497.97 505.2 1494.06 506.915C1489.98 508.63 1485.74 509.487 1481.33 509.487Z" fill="#808080"/>
<path d="M296.872 12.7028C292.764 10.456 288.039 8.62527 282.801 6.96099C277.563 5.37992 272.325 4.21491 267.292 3.38277C262.157 2.63384 258.459 2.21777 256.097 2.21777C250.653 2.21777 245.21 2.38421 239.972 2.71706C234.734 3.04992 229.906 3.71564 225.593 4.88064C221.279 5.96242 217.787 7.79314 215.014 10.3728C212.241 12.9524 210.905 16.3642 210.905 20.8577C210.905 36.4188 210.905 50.6484 210.905 63.6298C210.905 76.6112 210.905 89.343 210.905 101.659C210.905 114.058 211.111 126.623 211.522 139.438C211.932 152.253 212.446 166.649 213.268 182.46C210.495 178.049 206.181 170.893 200.326 161.074C194.472 151.254 187.693 140.353 180.093 128.287C172.492 116.221 164.481 103.739 156.059 90.7576C147.637 77.7762 139.523 65.627 131.717 54.393C123.911 43.1591 116.825 33.5895 110.559 25.601C104.294 17.6956 99.5695 12.9524 96.4882 11.3713C92.1745 9.12455 87.2445 7.12741 81.801 5.21349C76.3574 3.29956 67.1137 2.38421 54.1724 2.38421C49.4478 2.38421 44.5178 2.55065 39.177 2.8835C33.9389 3.21636 28.9062 3.88205 24.1816 5.04705C19.457 6.12883 15.4514 7.70991 12.1647 9.79027C8.87804 11.8706 6.92659 14.7831 6.61846 18.611C4.66701 41.4116 3.74262 65.1277 3.94804 89.6758C4.15346 114.224 3.84534 137.94 3.02367 160.741C2.20201 187.702 1.68847 213.831 1.27763 239.212C0.8668 264.592 0.661377 288.058 0.661377 309.611C0.661377 313.439 2.81826 316.351 7.13201 318.432C11.4458 320.512 16.273 322.176 21.5112 323.424C26.7493 324.673 31.9874 325.505 37.0201 325.838C42.0528 326.17 45.4422 326.337 46.9828 326.337C48.9343 326.337 52.5291 326.17 57.8699 325.838C63.1081 325.505 68.5516 324.922 73.9951 323.924C79.4387 323.008 84.4714 321.594 88.9905 319.846C93.5097 318.099 96.0774 315.935 96.8991 313.439C96.8991 313.106 96.8991 311.025 96.8991 307.281C96.8991 303.453 96.8991 298.543 96.8991 292.552C96.8991 286.56 96.8991 279.987 96.8991 272.83C96.8991 265.674 96.7964 258.85 96.591 252.359C96.3855 245.869 96.2828 239.961 96.2828 234.801C96.2828 229.559 96.2828 225.981 96.2828 224.067C96.2828 212.999 96.2828 203.263 96.2828 194.859C96.2828 186.454 96.0774 176.718 95.6666 165.65C99.9803 171.642 105.218 179.048 111.484 187.785C117.749 196.523 124.63 205.926 132.025 216.078C139.42 226.23 147.123 236.549 154.929 246.951C162.735 257.436 170.336 267.338 177.833 276.658C185.228 285.978 192.418 294.466 199.299 302.122C206.181 309.694 212.138 315.769 217.171 320.179C218.3 321.094 220.149 321.927 222.717 322.592C225.285 323.258 228.058 323.84 231.242 324.506C234.323 325.172 237.507 325.505 240.588 325.671C243.669 325.838 246.237 325.921 248.188 325.921C250.14 325.921 254.043 325.754 259.897 325.421C265.752 325.089 271.709 324.589 277.768 324.007C283.828 323.341 289.374 322.509 294.51 321.427C299.543 320.345 302.316 319.014 302.727 317.35C303.137 316.434 303.343 313.272 303.343 308.113C303.343 302.87 303.446 296.546 303.651 289.057C303.856 281.651 303.959 273.579 303.959 265.008C303.959 256.437 303.856 248.282 303.651 240.543C303.446 232.804 303.343 225.897 303.343 219.823C303.343 213.831 303.343 209.504 303.343 207.008V173.722C303.343 149.008 303.651 123.627 304.267 97.6644C304.883 71.7016 304.37 45.822 302.829 20.192C303.035 17.3628 300.981 14.9495 296.872 12.7028Z" fill="#D33CBA"/>
<path d="M605.203 109.73C605.203 105.32 603.868 101.908 601.094 99.4948C598.321 97.0816 594.932 95.4173 590.824 94.502C586.715 93.5866 582.402 93.0041 577.882 92.8377C573.363 92.6713 569.152 92.5881 565.249 92.5881C562.476 92.5881 558.368 92.6713 552.924 92.8377C547.481 93.0041 541.832 93.5866 536.183 94.502C530.534 95.4173 525.604 96.832 521.496 98.5795C517.387 100.327 515.333 102.823 515.333 105.986V110.729C505.987 100.909 494.894 94.502 482.158 91.5063C469.422 88.5106 455.865 87.0127 441.383 87.0127C420.636 87.0127 402.867 90.8406 387.975 98.413C373.082 105.986 360.757 115.888 351 127.871C341.242 139.937 334.053 153.334 329.534 168.063C325.015 182.792 322.755 197.438 322.755 212.084C322.755 226.979 325.015 241.458 329.534 255.605C334.053 269.751 340.934 282.233 350.383 293.134C359.73 304.035 371.849 312.856 386.434 319.513C401.121 326.17 418.787 329.499 439.534 329.499C453.605 329.499 466.957 327.418 479.488 323.341C492.018 319.263 503.522 313.522 514.101 306.199C514.511 307.114 514.717 308.196 514.717 309.278C514.717 310.359 514.717 311.441 514.717 312.357C514.717 316.517 516.155 319.596 519.133 321.593C522.112 323.674 525.707 325.088 530.02 325.837C534.334 326.586 538.853 327.002 543.475 327.002C548.2 327.002 552.308 327.002 555.8 327.002C560.525 327.002 565.763 326.919 571.617 326.753C577.472 326.586 582.915 325.837 588.051 324.339C593.083 322.925 597.397 320.761 600.992 317.932C604.484 315.103 606.23 310.942 606.23 305.533V256.52L605.203 158.743V109.73ZM506.603 227.894C504.651 233.802 501.673 239.045 497.77 243.788C493.867 248.531 488.732 252.359 482.466 255.189C476.201 258.018 469.012 259.432 460.795 259.432C452.578 259.432 445.491 257.935 439.637 254.939C433.783 251.943 428.955 248.032 425.258 243.289C421.56 238.546 418.787 233.22 417.041 227.395C415.295 221.57 414.371 215.745 414.371 210.003C414.371 204.594 415.295 198.686 417.041 192.195C418.787 185.705 421.56 179.63 425.258 173.888C428.955 168.147 433.783 163.32 439.637 159.409C445.491 155.415 452.373 153.501 460.179 153.501C468.395 153.501 475.585 155.415 481.85 159.243C488.115 163.07 493.251 167.814 497.359 173.472C501.467 179.131 504.446 185.289 506.5 191.779C508.452 198.27 509.479 204.345 509.479 210.086C509.581 216.078 508.554 221.986 506.603 227.894Z" fill="#D33CBA"/>
<path d="M875.428 269.252C873.271 267.837 870.806 267.088 868.136 267.088C865.363 267.088 862.692 267.088 859.919 267.088C856.735 267.088 853.962 266.423 851.395 265.174C848.827 263.926 847.184 260.431 846.362 254.689C845.54 251.527 845.335 248.365 845.746 245.203C846.157 242.041 846.362 238.879 846.362 235.717V183.375L846.978 77.8594V25.6009C846.978 22.1059 845.746 19.1934 843.178 16.7802C840.61 14.367 837.529 12.6195 833.831 11.288C830.134 10.0398 826.231 9.12449 822.123 8.70842C818.014 8.20914 814.214 7.95947 810.722 7.95947H786.072C779.396 7.95947 772.72 8.95805 766.147 11.0384C759.471 13.1188 755.568 17.113 754.438 23.1877C753.616 27.3484 753.205 33.2566 753 40.9955C752.795 48.7344 752.692 56.9726 752.692 65.7101C752.692 74.4476 752.795 82.9354 753 91.1736C753.205 99.4118 753.308 105.903 753.308 110.646V149.174L753.924 225.731V264.259C753.924 285.479 759.881 301.872 771.796 313.439C783.71 325.005 803.43 330.83 830.75 330.83C839.378 330.83 846.875 330.498 853.346 329.915C859.817 329.249 865.26 327.751 869.779 325.421C874.299 323.008 877.585 319.513 879.742 314.687C881.899 309.944 882.926 303.619 882.926 295.631C882.926 287.393 882.207 281.318 880.872 277.324C879.331 273.413 877.585 270.667 875.428 269.252Z" fill="#D33CBA"/>
<path d="M1032.47 85.5151C1009.77 85.5151 989.332 88.5108 971.152 94.5855C952.973 100.577 937.567 109.065 925.036 120.049C912.506 130.95 902.954 144.098 896.278 159.243C889.602 174.471 886.315 191.114 886.315 209.171C886.315 246.867 898.332 276.408 922.366 297.628C946.4 318.848 982.142 329.499 1029.49 329.499C1052.19 329.499 1072.63 326.586 1090.81 320.678C1108.99 314.853 1124.6 306.615 1137.44 295.964C1150.38 285.312 1160.24 272.581 1167.12 257.685C1174 242.79 1177.39 226.313 1177.39 208.256C1177.39 170.227 1165.37 140.27 1141.34 118.385C1117.31 96.4162 1080.95 85.5151 1032.47 85.5151ZM1078.79 225.481C1076.43 231.639 1073.04 237.298 1068.52 242.374C1064 247.45 1058.45 251.611 1051.78 254.773C1045.1 257.935 1037.71 259.516 1029.49 259.516C1021.27 259.516 1014.08 257.935 1008.02 254.773C1001.97 251.611 996.932 247.533 993.029 242.623C989.126 237.714 986.148 232.222 984.196 226.23C982.245 220.239 981.218 214.331 981.218 208.672C981.218 202.681 982.245 196.356 984.402 189.866C986.559 183.375 989.743 177.467 994.056 172.058C998.37 166.649 1003.61 162.239 1009.87 158.744C1016.14 155.249 1023.53 153.501 1032.16 153.501C1041.92 153.501 1050.03 155.082 1056.5 158.244C1062.97 161.406 1068.01 165.484 1071.81 170.394C1075.5 175.303 1078.17 181.045 1079.72 187.536C1081.26 194.026 1082.08 200.6 1082.08 207.257C1082.39 213.249 1081.15 219.323 1078.79 225.481Z" fill="#D33CBA"/>
<path d="M1503.7 173.473C1503.7 148.758 1504 123.378 1504.62 97.415C1505.24 71.4522 1504.72 45.5726 1503.18 19.9427C1503.18 17.4463 1501.13 15.033 1497.02 12.7863C1492.91 10.5395 1488.19 8.70877 1482.95 7.04449C1477.71 5.46342 1472.47 4.2984 1467.44 3.46626C1462.3 2.71734 1458.61 2.30127 1456.24 2.30127C1450.8 2.30127 1445.36 2.4677 1440.12 2.80056C1434.88 3.13342 1430.05 3.79913 1425.74 4.96413C1421.43 6.04592 1417.93 7.87661 1415.16 10.4562C1412.39 13.0359 1411.05 16.4477 1411.05 20.9412C1411.05 36.5023 1411.05 50.7319 1411.05 63.7133C1411.05 76.6947 1411.05 89.4265 1411.05 101.742C1411.05 114.141 1411.26 126.706 1411.67 139.521C1412.08 152.336 1412.59 166.732 1413.41 182.543C1410.64 178.133 1406.33 170.976 1400.47 161.157C1394.62 151.338 1387.84 140.437 1380.24 128.371C1372.64 116.305 1364.63 103.823 1356.21 90.8411C1347.78 77.8597 1339.67 65.7105 1331.86 54.4766C1324.06 43.2426 1316.97 33.673 1310.71 25.6845C1304.44 17.7791 1299.72 13.0359 1296.64 11.4548C1292.32 9.20804 1287.39 7.21091 1281.95 5.29698C1276.5 3.38306 1267.26 2.46771 1254.32 2.46771C1249.59 2.46771 1244.66 2.63412 1239.32 2.96697C1234.09 3.29983 1229.05 3.96555 1224.33 5.13055C1219.6 6.21233 1215.6 7.79341 1212.31 9.87376C1209.02 11.9541 1207.07 14.8666 1206.77 18.6945C1204.81 41.4951 1203.89 65.2112 1204.09 89.7593C1204.3 114.308 1203.99 138.024 1203.17 160.824C1202.35 187.786 1201.84 213.915 1201.42 239.295C1201.01 264.675 1200.81 288.142 1200.81 309.694C1200.81 313.522 1202.97 316.435 1207.28 318.515C1211.59 320.595 1216.42 322.26 1221.66 323.508C1226.9 324.756 1232.13 325.588 1237.17 325.921C1242.2 326.254 1245.59 326.42 1247.13 326.42C1249.08 326.42 1252.68 326.254 1258.02 325.921C1263.25 325.588 1268.7 325.006 1274.14 324.007C1279.59 323.092 1284.62 321.677 1289.14 319.93C1293.66 318.182 1296.22 316.019 1297.05 313.522C1297.05 313.189 1297.05 311.109 1297.05 307.364C1297.05 303.536 1297.05 298.627 1297.05 292.635C1297.05 286.644 1297.05 280.07 1297.05 272.914C1297.05 265.757 1296.94 258.934 1296.74 252.443C1296.53 245.952 1296.43 240.044 1296.43 234.885C1296.43 229.642 1296.43 226.064 1296.43 224.15C1296.43 213.083 1296.43 203.347 1296.43 194.942C1296.43 186.537 1296.22 176.801 1295.81 165.734C1300.13 171.725 1305.37 179.131 1311.63 187.869C1317.9 196.606 1324.78 206.01 1332.17 216.162C1339.57 226.314 1347.27 236.632 1355.08 247.034C1362.88 257.519 1370.48 267.422 1377.98 276.742C1385.38 286.062 1392.56 294.549 1399.45 302.205C1406.33 309.778 1412.28 315.852 1417.32 320.263C1418.45 321.178 1420.3 322.01 1422.86 322.676C1425.43 323.341 1428.2 323.924 1431.39 324.59C1434.47 325.255 1437.65 325.588 1440.73 325.755C1443.82 325.921 1446.38 326.004 1448.34 326.004C1450.29 326.004 1454.19 325.838 1460.04 325.505C1465.9 325.172 1471.86 324.673 1477.92 324.09C1483.98 323.425 1489.52 322.593 1494.66 321.511C1499.69 320.429 1502.46 319.098 1502.87 317.433C1503.28 316.518 1503.49 313.356 1503.49 308.196C1503.49 302.954 1503.59 296.63 1503.8 289.14C1504 281.734 1504.11 273.663 1504.11 265.092C1504.11 256.52 1504 248.366 1503.8 240.627C1503.59 232.888 1503.49 225.981 1503.49 219.906C1503.49 213.915 1503.49 209.588 1503.49 207.091V173.473H1503.7Z" fill="#D33CBA"/>
<path d="M727.734 146.677C730.301 111.145 729.582 101.242 729.069 84.1836C728.35 60.0515 717.976 42.9926 703.7 33.1733C704.316 57.3887 703.597 92.2554 695.791 101.991C690.245 108.815 678.126 112.809 662.514 112.809H662.411C654.297 112.809 645.259 111.644 637.658 109.231C637.761 113.392 637.967 116.304 637.967 118.634L638.069 166.233L638.686 266.589V316.517C638.686 318.099 639.815 319.513 642.178 320.761C644.129 322.01 647.416 323.175 652.14 324.09C656.865 325.005 661.898 325.754 667.444 326.254C672.887 326.753 678.228 327.169 683.261 327.419C688.294 327.668 692.299 327.918 694.97 327.918C697.332 327.918 700.516 327.835 704.624 327.668C708.733 327.502 712.841 327.002 716.949 326.254C721.058 325.505 724.55 324.34 727.528 322.925C730.507 321.51 731.945 319.347 731.945 316.517C731.945 316.517 734.821 284.397 732.253 239.544C733.485 219.656 726.296 166.566 727.734 146.677Z" fill="#D33CBA"/>
<path d="M662.617 105.736C675.044 105.736 684.699 102.907 688.499 98.1637C689.013 97.5812 689.423 96.8322 689.834 95.9169C689.526 96.333 689.321 96.4162 689.321 96.4162C693.121 84.9326 695.278 58.2209 693.018 27.2652C693.018 27.0156 692.916 26.8492 692.916 26.5995C691.375 19.7759 689.732 14.6167 688.294 12.7027C681.515 3.63239 672.682 0.636673 662.206 0.886316C648.546 1.30239 646.902 6.04561 643.513 11.9538C638.686 20.3584 632.831 80.5223 637.761 98.4965C637.864 99.079 638.069 99.4951 638.172 99.9944C638.583 100.827 639.096 101.492 639.713 102.158C645.772 104.322 654.092 105.736 662.617 105.736C662.617 105.736 662.514 105.736 662.617 105.736ZM652.448 18.1117C648.546 23.3541 642.999 46.3212 642.999 46.3212C642.999 44.9066 644.334 23.3542 646.902 15.6984C649.47 8.04275 660.254 4.7974 668.368 6.96096C668.265 14.6167 656.249 12.9524 652.448 18.1117Z" fill="#D33CBA"/>
</svg>
